<svg version="1.2" xmlns="http://www.w3.org/2000/svg" viewBox="0 0 500 500" width="500" height="500">
	<title>hero-svg</title>
	<style>
		.s0 { fill: #e0b524 } 
		.s1 { opacity: .7;fill: #ffffff } 
		.s2 { fill: none;stroke: #263238;stroke-linecap: round;stroke-linejoin: round } 
		.s3 { fill: #ffffff;stroke: #000000;stroke-linecap: round;stroke-linejoin: round } 
		.s4 { fill: none;stroke: #000000;stroke-linecap: round;stroke-linejoin: round } 
		.s5 { fill: #000000;stroke: #000000 } 
		.s6 { fill: #000000 } 
		.s7 { opacity: .3;fill: #000000 } 
		.s8 { fill: none;stroke: #b2b2b2;stroke-linecap: round;stroke-linejoin: round } 
		.s9 { fill: #0ff4c6;stroke: #000000;stroke-linecap: round;stroke-linejoin: round } 
		.s10 { fill: #263238;stroke: #000000;stroke-linecap: round;stroke-linejoin: round } 
		.s11 { fill: #0ff4c6;stroke: #263238;stroke-linecap: round;stroke-linejoin: round } 
		.s12 { fill: none;stroke: #263238 } 
		.s13 { fill: #ffffff;stroke: #263238;stroke-linecap: round;stroke-linejoin: round } 
		.s14 { fill: #263238;stroke: #263238;stroke-linecap: round;stroke-linejoin: round } 
		.s15 { fill: #263238 } 
		.s16 { fill: #263238;stroke: #263238;stroke-linecap: round;stroke-linejoin: round;stroke-width: 1 } 
		.s17 { fill: none;stroke: #263238;stroke-linecap: round;stroke-linejoin: round;stroke-width: 3 } 
	</style>
	<g id="freepik--background-simple--inject-2">
		<path id="Layer" class="s0" d="m472 171.5c17.4 47.9 18.2 101.5 7 150.9-6.1 26.5-17.5 72.2-44.9 85.5-43 21-108-43-139-21-31 22-106 60-197 34-91-26-104.1-108-50-162.6 54.1-54.6 77-102.4 78-146.4 1-44 49-87 131-81 54.4 4 109.4 21.7 152.6 55.8 27.5 21.8 49.5 50 62.3 84.8z"/>
		<path id="Layer" class="s1" d="m472 171.5c17.4 47.9 18.2 101.5 7 150.9-6.1 26.5-17.5 72.2-44.9 85.5-43 21-108-43-139-21-31 22-106 60-197 34-91-26-104.1-108-50-162.6 54.1-54.6 77-102.4 78-146.4 1-44 49-87 131-81 54.4 4 109.4 21.7 152.6 55.8 27.5 21.8 49.5 50 62.3 84.8z"/>
	</g>
	<g id="freepik--Wall--inject-2">
		<path id="Layer" class="s2" d="m263.7 24v269.8"/>
	</g>
	<g id="freepik--room-3--inject-2">
		<g id="Layer" style="opacity: .3">
			<path id="Layer" class="s3" d="m76.4 404c0-2.7 2.2-4.9 4.8-4.9h244.1c2.7 0 4.8 2.2 4.8 4.9v35.1c0 2.7-2.1 4.9-4.8 4.9h-244.1c-2.6 0-4.8-2.2-4.8-4.9z"/>
			<path id="Layer" class="s3" d="m97.9 373.1h210.7q1.7 0 3.2 0.6 1.5 0.6 2.6 1.8 1.2 1.1 1.8 2.6 0.6 1.6 0.6 3.2v62.7h-227.1v-62.7q0-1.6 0.6-3.2 0.6-1.5 1.8-2.6 1.1-1.2 2.6-1.8 1.6-0.6 3.2-0.6z"/>
			<path id="Layer" class="s3" d="m89.7 414.9h227.1v29.1h-227.1z"/>
			<path id="Layer" class="s4" d="m25.9 444.1h464.5"/>
		</g>
		<g id="Layer" style="opacity: .3">
			<path id="Layer" class="s3" d="m367.1 373.1h110.1v70.9h-110.1z"/>
			<path id="Layer" class="s3" d="m371.6 379.3h47.5v23.8h-47.6z"/>
			<path id="Layer" class="s3" d="m424.2 379.3h47.5v23.8h-47.5z"/>
			<path id="Layer" class="s3" d="m371.6 408.7h47.5v23.8h-47.6z"/>
			<path id="Layer" class="s3" d="m424.2 408.7h47.5v23.8h-47.5z"/>
			<path id="Layer" class="s3" d="m367.1 367.4h110.1v5.7h-110.1z"/>
			<path id="Layer" class="s5" d="m423.3 334.7l-9.2 3.6-2.1-5.6q-0.3-0.7-0.3-1.5-0.1-0.7 0.1-1.5 0.2-0.7 0.6-1.4 0.5-0.6 1.1-1.1l-3-3.3q-0.2 0.1-0.4 0.2-0.1 0-0.3 0.1-0.2 0-0.4 0.1-0.1 0-0.3 0-0.2 0-0.3 0-0.2-0.1-0.3-0.1-0.2 0-0.3-0.1-0.2 0-0.3-0.1l-21.8 20q0.1 0.2 0.1 0.3 0 0.1 0 0.2 0.1 0.2 0.1 0.3 0 0.1 0 0.2 0 0.4-0.1 0.7-0.1 0.3-0.2 0.6-0.2 0.3-0.4 0.5-0.2 0.3-0.4 0.4l3.3 13.1h8.4q0.8 0 1.5 0.3 0.8 0.3 1.4 0.9 0.6 0.6 0.9 1.4 0.3 0.7 0.3 1.6v3.1h-25.2v-3.1q0-0.9 0.3-1.6 0.3-0.8 0.9-1.4 0.6-0.6 1.3-0.9 0.8-0.3 1.6-0.3h6.5l-3.2-12.6c-0.6 0-1.2-0.3-1.6-0.8-0.4-0.4-0.7-0.9-0.8-1.5 0-0.6 0.1-1.2 0.4-1.8 0.3-0.5 0.8-0.9 1.4-1.1q0.2-0.1 0.5-0.1 0.3-0.1 0.6-0.1 0.2 0 0.5 0.1 0.3 0.1 0.5 0.2l21.8-20.1q0-0.1-0.1-0.2 0-0.1 0-0.3 0-0.1 0-0.2-0.1-0.2-0.1-0.3 0-0.5 0.2-1 0.2-0.5 0.6-0.9 0.4-0.4 0.9-0.6 0.5-0.2 1-0.2 0.3 0 0.6 0.1 0.2 0 0.4 0.1 0.3 0.1 0.5 0.3 0.2 0.2 0.4 0.4 0.3 0.2 0.5 0.5 0.2 0.3 0.3 0.6 0.1 0.4 0.1 0.7 0 0.4-0.1 0.7l3.5 4q0.9-0.2 1.8-0.1 1 0.1 1.8 0.5 0.8 0.4 1.4 1.1 0.6 0.7 0.9 1.5z"/>
		</g>
		<g id="Layer" style="opacity: .3">
			<path id="Layer" class="s6" d="m64.5 380.3q-0.4-0.4-0.6-0.9-0.2-0.5-0.4-1-0.1-0.6-0.1-1.1 0-0.5 0.1-1.1 0.1-0.5 0.5-0.9 0.3-0.3 0.7-0.6 0.5-0.2 1-0.2 0.5 0 1 0.2c1.9 0.8 2.5 4.4 2.4 6.2-0.1 0.1-0.6 2.5-0.6 2.5 0 0-3.1-1.8-4-3.1z"/>
			<path id="Layer" class="s6" d="m31.5 383.4q-0.4-0.2-0.8-0.6-0.4-0.4-0.8-0.8-0.3-0.5-0.5-1-0.1-0.5-0.1-1 0.1-0.5 0.4-0.9 0.2-0.4 0.6-0.7 0.4-0.3 0.9-0.4c2-0.4 4.6 2.2 5.4 3.8 0.1 0.2 0.9 2.5 0.9 2.5 0 0-3.5 0.2-5-0.4q-0.5-0.2-1-0.5z"/>
			<path id="Layer" class="s6" d="m33 394q-0.5-0.1-1-0.4-0.5-0.2-0.9-0.6-0.4-0.3-0.8-0.8-0.2-0.4-0.3-0.9-0.1-0.5 0-1 0.2-0.5 0.5-0.9 0.3-0.4 0.8-0.6c1.8-0.9 5 1 6.2 2.3 0.1 0.1 1.1 1.4 1.4 1.9q0 0 0 0 0 0 0 0 0 0 0 0 0 0 0 0-0.2-0.7-0.4-1.4-0.1-0.7-0.3-1.3-0.1-0.7-0.2-1.4-0.1-0.7-0.2-1.4-0.1-0.6-0.1-1.2-0.1-0.7-0.1-1.3-0.1-0.6-0.1-1.2 0-0.7 0-1.3c0-1.5 0.1-2.9 0.1-4.2q0.1-1 0.2-1.8c0 0-0.8-2.4-0.8-2.5-0.4-1.8 0-5.4 1.7-6.4q0.5-0.2 1-0.3 0.5 0 1 0.2 0.4 0.1 0.8 0.5 0.4 0.4 0.6 0.8 0.1 0.6 0.2 1.1 0 0.5-0.1 1.1-0.1 0.5-0.3 1-0.2 0.5-0.4 1-0.4 0.5-0.8 1-0.5 0.4-0.9 0.8-0.5 0.5-0.9 0.9-0.5 0.3-1 0.7c-0.1 0.6-0.2 1.2-0.2 1.9 0 1.3 0 2.7 0 4.2 0 0.4 0.1 0.9 0.1 1.3 0.1-0.7 0.3-1.7 0.3-1.8 0.5-1.8 2.5-4.8 4.5-4.9q0.5 0 1 0.2 0.5 0.2 0.8 0.6 0.3 0.4 0.5 0.8 0.2 0.5 0.1 1-0.1 0.6-0.3 1.1-0.2 0.5-0.6 1-0.3 0.4-0.7 0.8-0.4 0.4-0.9 0.6-0.6 0.3-1.1 0.5-0.6 0.2-1.2 0.4-0.6 0.2-1.2 0.3-0.6 0.1-1.2 0.2c0.1 0.9 0.1 1.9 0.3 2.9q0.1 0.7 0.2 1.4 0.1 0.6 0.3 1.3 0.1 0.7 0.3 1.3 0.2 0.7 0.4 1.4h0.1c0.1-0.7 0.2-2.1 0.2-2.3 0.3-1.7 1.9-5 3.9-5.3q0.5-0.1 1 0.1 0.5 0.1 0.9 0.5 0.3 0.3 0.5 0.8 0.3 0.5 0.3 1-0.1 0.5-0.2 1-0.2 0.5-0.5 1-0.2 0.5-0.6 0.9-0.4 0.4-0.8 0.7c-1.2 1-4.5 1.9-4.6 1.9q0.2 0.7 0.4 1.3 0.3 0.6 0.5 1.3 0.3 0.6 0.6 1.2 0.3 0.6 0.6 1.2 1 1.8 2 3.6c0-0.5 0.1-2.3 0.1-2.5 0.3-1.7 2-5 4-5.3q0.5-0.1 1 0.1 0.4 0.1 0.8 0.5 0.4 0.3 0.6 0.8 0.2 0.4 0.2 0.9 0 0.6-0.2 1.1-0.1 0.5-0.4 1-0.3 0.5-0.6 0.9-0.4 0.4-0.8 0.7c-1.2 1-4.4 1.8-4.7 1.9l1 1.6q1.5 2.7 3 5.3 0.5 1 0.9 1.9c0.1-0.7 0.1-2 0.1-2.1 0.3-1.8 2-5.1 4-5.4q0.5 0 1 0.1 0.5 0.2 0.9 0.5 0.3 0.3 0.5 0.8 0.3 0.5 0.3 1-0.1 0.5-0.2 1.1-0.2 0.5-0.5 1-0.2 0.4-0.6 0.8-0.4 0.4-0.8 0.8-0.5 0.3-1.1 0.5-0.5 0.3-1.1 0.6-0.5 0.2-1.1 0.4-0.6 0.2-1.2 0.3 0.8 1.6 1.5 3.1c0.1 0.5 0.3 0.9 0.5 1.4l0.4 1.3c0.3 0.9 0.6 1.8 0.8 2.6q0.2 0.7 0.3 1.3c0-0.7-0.2-1.9-0.2-2 0.1-1.8 1.2-5.3 3.1-5.9q0.5-0.1 1 0 0.5 0 1 0.3 0.4 0.3 0.7 0.7 0.3 0.4 0.3 0.9 0.1 0.1 0.1 0.2 0 0 0 0.1 0 0.1 0 0.1 0 0.1 0 0.2 0.3 0.5 0.6 1 0.2 0.6 0.4 1.1 0.2 0.6 0.3 1.2 0.1 0.6 0.1 1.2c0 0.1-0.1 1.4-0.2 2.1q0.3-0.8 0.6-1.6c0.3-0.8 0.5-1.7 0.8-2.6q0.2-0.6 0.4-1.3c0.1-0.5 0.2-0.9 0.3-1.4 0.2-0.6 0.3-1.4 0.4-2q-0.6-0.2-1.1-0.4-0.6-0.2-1.1-0.4-0.6-0.2-1.1-0.5-0.5-0.3-1-0.6-0.5-0.3-0.8-0.7-0.4-0.4-0.6-0.9-0.3-0.5-0.4-1-0.2-0.5-0.2-1.1 0-0.5 0.2-0.9 0.2-0.5 0.6-0.8 0.4-0.4 0.9-0.5 0.4-0.2 1-0.1c2 0.3 3.6 3.5 3.9 5.3 0 0.1 0 0.5 0 0.9q0.1-1 0.3-2.1c0.2-1.9 0.3-4 0.5-6l0.1-1.3q-0.6-0.1-1.1-0.3-0.6-0.2-1.1-0.4-0.6-0.3-1.1-0.5-0.6-0.3-1.1-0.6-0.4-0.4-0.8-0.8-0.3-0.4-0.6-0.8-0.3-0.5-0.4-1.1-0.2-0.5-0.2-1 0-0.5 0.2-1 0.2-0.5 0.6-0.8 0.4-0.3 0.9-0.5 0.4-0.1 0.9-0.1c2.1 0.3 3.7 3.6 4 5.4 0 0 0 0.5 0 1q0.2-1.7 0.4-3.3 0.1-0.7 0.2-1.4 0.2-0.7 0.3-1.4 0.1-0.7 0.3-1.4 0.2-0.7 0.4-1.3c-0.3-0.1-3.5-1-4.7-2q-0.4-0.3-0.8-0.7-0.3-0.4-0.6-0.9-0.3-0.4-0.4-1-0.2-0.5-0.2-1 0-0.6 0.2-1 0.2-0.5 0.6-0.8 0.4-0.4 0.9-0.5 0.5-0.2 1-0.1c2 0.3 3.6 3.6 3.9 5.4 0 0.1 0.1 1.8 0.1 2.3q0 0 0 0 0 0 0 0 0 0 0 0 0 0 0 0 0.2-0.7 0.4-1.4 0.3-0.6 0.5-1.3 0.3-0.6 0.6-1.2 0.3-0.7 0.6-1.3 0.3-0.5 0.6-1.1 0.3-0.5 0.6-1.1 0.3-0.5 0.6-1 0.3-0.6 0.7-1.1c0.8-1.3 1.6-2.4 2.4-3.4q0.6-0.8 1.2-1.5c-0.1 0 0.6-2.3 0.6-2.5 0.7-1.7 3-4.5 5-4.3q0.5 0 1 0.3 0.4 0.2 0.7 0.6 0.3 0.4 0.4 0.9 0.1 0.5 0 1-0.1 0.6-0.4 1-0.2 0.5-0.6 0.9-0.4 0.4-0.8 0.7-0.5 0.4-1 0.6-0.5 0.2-1.1 0.3-0.6 0.2-1.2 0.3-0.6 0.1-1.2 0.2-0.7 0-1.3 0-0.5 0.7-1.2 1.6c-0.7 1-1.5 2.1-2.3 3.4q-0.3 0.6-0.6 1.1c0.4-0.5 1.1-1.2 1.2-1.3 1.4-1.2 4.7-2.6 6.5-1.6q0.4 0.3 0.7 0.7 0.2 0.5 0.3 1 0.1 0.5 0 1-0.2 0.4-0.5 0.8-0.4 0.4-0.8 0.7-0.5 0.3-1 0.5-0.5 0.2-1.1 0.3-0.5 0.1-1 0-0.6-0.1-1.2-0.2-0.6-0.1-1.2-0.3-0.6-0.2-1.2-0.4-0.6-0.3-1.1-0.5-0.7 1.2-1.4 2.6-0.3 0.6-0.6 1.2-0.2 0.7-0.5 1.3-0.2 0.6-0.5 1.3-0.2 0.7-0.4 1.3l0.1 0.1c0.4-0.6 1.3-1.7 1.4-1.8 1.2-1.3 4.4-3.2 6.2-2.3q0.5 0.2 0.8 0.6 0.3 0.4 0.5 1 0.1 0.5 0 1-0.1 0.5-0.4 0.9-0.3 0.5-0.7 0.8-0.5 0.4-1 0.6-0.4 0.3-1 0.4-0.5 0.1-1 0.2c-1.6 0.1-4.8-1-5-1q-0.1 0.6-0.3 1.3-0.1 0.7-0.3 1.3-0.1 0.7-0.2 1.4-0.1 0.7-0.2 1.3c-0.1 1.4-0.2 2.8-0.3 4.1 0.2-0.4 1.3-1.9 1.4-2 1.3-1.3 4.4-3.1 6.3-2.3q0.4 0.3 0.7 0.7 0.4 0.4 0.5 0.9 0.1 0.5 0.1 1-0.1 0.5-0.4 0.9-0.3 0.4-0.8 0.8-0.4 0.3-0.9 0.6-0.4 0.2-1 0.4-0.5 0.1-1 0.1c-1.6 0.1-4.7-0.9-5-1 0 0.6-0.1 1.2-0.1 1.9-0.1 2-0.2 4.1-0.4 6.1q-0.1 1-0.2 2c0.4-0.5 1.2-1.6 1.2-1.7 1.3-1.2 4.4-3.1 6.3-2.2q0.4 0.2 0.8 0.6 0.3 0.4 0.4 0.9 0.1 0.5 0.1 1-0.1 0.5-0.4 0.9-0.3 0.4-0.8 0.8-0.4 0.3-0.9 0.6-0.5 0.2-1 0.3-0.5 0.2-1.1 0.2-0.6 0-1.2-0.1-0.6-0.1-1.1-0.2-0.6-0.1-1.2-0.3-0.6-0.1-1.2-0.3-0.2 1.7-0.5 3.3c-0.1 0.5-0.2 1-0.3 1.5l-0.4 1.3c-0.3 0.9-0.5 1.8-0.8 2.6l-0.4 1.3c0.3-0.7 0.9-1.7 0.9-1.8 1.1-1.5 3.9-3.8 5.8-3.2q0.6 0.1 0.9 0.5 0.4 0.3 0.7 0.8 0.2 0.5 0.2 1 0 0.5-0.2 1-0.3 0.5-0.7 0.9-0.3 0.4-0.8 0.7-0.4 0.3-0.9 0.6-0.5 0.2-1.1 0.3-0.6 0-1.2 0.1-0.6 0-1.3 0-0.6-0.1-1.2-0.1-0.6-0.1-1.3-0.2-0.4 1.5-1 2.9c-0.9 2.5-1.8 4.7-2.5 6.3h-1.5c0.8-1.7 1.8-4 2.9-6.8q0.5-1.2 1-2.6-0.5-0.2-1.1-0.5-0.5-0.3-1-0.6-0.5-0.3-1-0.6-0.5-0.4-1-0.8-0.3 0.2-0.7 0.4-0.3 0.2-0.6 0.4-0.4 0.2-0.7 0.3-0.4 0.2-0.7 0.3c0.2 1 0.5 2.1 0.7 3 0.7 3 1.2 5.6 1.5 7.3v0.2l-1.4 0.1c-0.2-1.8-0.6-4.3-1.3-7.3q-0.3-1.3-0.6-2.7-0.6 0.1-1.2 0.2-0.7 0.1-1.3 0.1-0.6 0-1.2 0-0.7 0-1.3-0.1-0.5-0.1-1-0.3-0.5-0.3-1-0.6-0.4-0.3-0.8-0.7-0.3-0.4-0.6-0.9-0.2-0.5-0.2-1 0-0.4 0.3-0.9 0.2-0.5 0.5-0.8 0.4-0.3 0.9-0.5c1.9-0.5 4.8 1.7 5.8 3.2 0 0.1 0.7 1.4 1 2q-0.2-0.8-0.4-1.7c-0.2-0.9-0.5-1.7-0.7-2.6-0.2-0.4-0.3-0.9-0.5-1.3-0.1-0.5-0.3-0.9-0.4-1.4-0.3-0.6-0.6-1.3-0.9-2q-0.5 0.2-1.1 0.4-0.6 0.2-1.1 0.3-0.6 0.1-1.2 0.1-0.6 0.1-1.2 0.1-0.5 0-1.1-0.1-0.5-0.2-1-0.4-0.5-0.3-0.9-0.6-0.4-0.4-0.7-0.8-0.3-0.4-0.4-1-0.1-0.5 0.1-0.9 0.1-0.5 0.4-0.9 0.3-0.4 0.8-0.7c1.8-0.8 5 1 6.2 2.3 0.1 0.1 0.3 0.4 0.6 0.8q-0.5-1-0.9-1.9c-0.9-1.8-1.9-3.6-2.9-5.4q-0.3-0.5-0.7-1.1-0.5 0.2-1.1 0.3-0.6 0.2-1.2 0.3-0.6 0.1-1.2 0.2-0.6 0.1-1.2 0.1-0.6 0-1.1-0.2-0.5-0.1-1-0.4-0.5-0.2-0.9-0.6-0.4-0.3-0.8-0.7-0.2-0.5-0.3-1-0.1-0.5 0-1 0.2-0.5 0.5-0.9 0.3-0.4 0.8-0.6c1.8-0.9 5 1 6.2 2.3 0 0.1 0.3 0.4 0.6 0.8-0.5-1-1-2-1.5-3q-0.3-0.6-0.6-1.2-0.2-0.7-0.5-1.4-0.3-0.6-0.5-1.3-0.3-0.6-0.5-1.3c-0.2 0.1-3.4 1.1-4.9 0.9q-0.5 0-1.1-0.1z"/>
			<path id="Layer" class="s7" d="m31.5 383.4q-0.4-0.2-0.8-0.6-0.4-0.4-0.8-0.8-0.3-0.5-0.5-1-0.1-0.5-0.1-1 0.1-0.5 0.4-0.9 0.2-0.4 0.6-0.7 0.4-0.3 0.9-0.4c2-0.4 4.6 2.2 5.4 3.8 0.1 0.2 0.9 2.5 0.9 2.5 0 0-3.5 0.2-5-0.4q-0.5-0.2-1-0.5z"/>
			<path id="Layer" class="s7" d="m64.5 380.3q-0.4-0.4-0.6-0.9-0.2-0.5-0.4-1-0.1-0.6-0.1-1.1 0-0.5 0.1-1.1 0.1-0.5 0.5-0.9 0.3-0.3 0.7-0.6 0.5-0.2 1-0.2 0.5 0 1 0.2c1.9 0.8 2.5 4.4 2.4 6.2-0.1 0.1-0.6 2.5-0.6 2.5 0 0-3.1-1.8-4-3.1z"/>
			<path id="Layer" class="s7" d="m33 394q-0.5-0.1-1-0.4-0.5-0.2-0.9-0.6-0.4-0.3-0.8-0.8-0.2-0.4-0.3-0.9-0.1-0.5 0-1 0.2-0.5 0.5-0.9 0.3-0.4 0.8-0.6c1.8-0.9 5 1 6.2 2.3 0.1 0.1 1.1 1.4 1.4 1.9q0 0 0 0 0 0 0 0 0 0 0 0 0 0 0 0-0.2-0.7-0.4-1.4-0.1-0.7-0.3-1.3-0.1-0.7-0.2-1.4-0.1-0.7-0.2-1.4-0.1-0.6-0.1-1.2-0.1-0.7-0.1-1.3-0.1-0.6-0.1-1.2 0-0.7 0-1.3c0-1.5 0.1-2.9 0.1-4.2q0.1-1 0.2-1.8c0 0-0.8-2.4-0.8-2.5-0.4-1.8 0-5.4 1.7-6.4q0.5-0.2 1-0.3 0.5 0 1 0.2 0.4 0.1 0.8 0.5 0.4 0.4 0.6 0.8 0.1 0.6 0.2 1.1 0 0.5-0.1 1.1-0.1 0.5-0.3 1-0.2 0.5-0.4 1-0.4 0.5-0.8 1-0.5 0.4-0.9 0.8-0.5 0.5-0.9 0.9-0.5 0.3-1 0.7c-0.1 0.6-0.2 1.2-0.2 1.9 0 1.3 0 2.7 0 4.2 0 0.4 0.1 0.9 0.1 1.3 0.1-0.7 0.3-1.7 0.3-1.8 0.5-1.8 2.5-4.8 4.5-4.9q0.5 0 1 0.2 0.5 0.2 0.8 0.6 0.3 0.4 0.5 0.8 0.2 0.5 0.1 1-0.1 0.6-0.3 1.1-0.2 0.5-0.6 1-0.3 0.4-0.7 0.8-0.4 0.4-0.9 0.6-0.6 0.3-1.1 0.5-0.6 0.2-1.2 0.4-0.6 0.2-1.2 0.3-0.6 0.1-1.2 0.2c0.1 0.9 0.1 1.9 0.3 2.9q0.1 0.7 0.2 1.4 0.1 0.6 0.3 1.3 0.1 0.7 0.3 1.3 0.2 0.7 0.4 1.4h0.1c0.1-0.7 0.2-2.1 0.2-2.3 0.3-1.7 1.9-5 3.9-5.3q0.5-0.1 1 0.1 0.5 0.1 0.9 0.5 0.3 0.3 0.5 0.8 0.3 0.5 0.3 1-0.1 0.5-0.2 1-0.2 0.5-0.5 1-0.2 0.5-0.6 0.9-0.4 0.4-0.8 0.7c-1.2 1-4.5 1.9-4.6 1.9q0.2 0.7 0.4 1.3 0.3 0.6 0.5 1.3 0.3 0.6 0.6 1.2 0.3 0.6 0.6 1.2 1 1.8 2 3.6c0-0.5 0.1-2.3 0.1-2.5 0.3-1.7 2-5 4-5.3q0.5-0.1 1 0.1 0.4 0.1 0.8 0.5 0.4 0.3 0.6 0.8 0.2 0.4 0.2 0.9 0 0.6-0.2 1.1-0.1 0.5-0.4 1-0.3 0.5-0.6 0.9-0.4 0.4-0.8 0.7c-1.2 1-4.4 1.8-4.7 1.9l1 1.6q1.5 2.7 3 5.3 0.5 1 0.9 1.9c0.1-0.7 0.1-2 0.1-2.1 0.3-1.8 2-5.1 4-5.4q0.5 0 1 0.1 0.5 0.2 0.9 0.5 0.3 0.3 0.5 0.8 0.3 0.5 0.3 1-0.1 0.5-0.2 1.1-0.2 0.5-0.5 1-0.2 0.4-0.6 0.8-0.4 0.4-0.8 0.8-0.5 0.3-1.1 0.5-0.5 0.3-1.1 0.6-0.5 0.2-1.1 0.4-0.6 0.2-1.2 0.3 0.8 1.6 1.5 3.1c0.1 0.5 0.3 0.9 0.5 1.4l0.4 1.3c0.3 0.9 0.6 1.8 0.8 2.6q0.2 0.7 0.3 1.3c0-0.7-0.2-1.9-0.2-2 0.1-1.8 1.2-5.3 3.1-5.9q0.5-0.1 1 0 0.5 0 1 0.3 0.4 0.3 0.7 0.7 0.3 0.4 0.3 0.9 0.1 0.1 0.1 0.2 0 0 0 0.1 0 0.1 0 0.1 0 0.1 0 0.2 0.3 0.5 0.6 1 0.2 0.6 0.4 1.1 0.2 0.6 0.3 1.2 0.1 0.6 0.1 1.2c0 0.1-0.1 1.4-0.2 2.1q0.3-0.8 0.6-1.6c0.3-0.8 0.5-1.7 0.8-2.6q0.2-0.6 0.4-1.3c0.1-0.5 0.2-0.9 0.3-1.4 0.2-0.6 0.3-1.4 0.4-2q-0.6-0.2-1.1-0.4-0.6-0.2-1.1-0.4-0.6-0.2-1.1-0.5-0.5-0.3-1-0.6-0.5-0.3-0.8-0.7-0.4-0.4-0.6-0.9-0.3-0.5-0.4-1-0.2-0.5-0.2-1.1 0-0.5 0.2-0.9 0.2-0.5 0.6-0.8 0.4-0.4 0.9-0.5 0.4-0.2 1-0.1c2 0.3 3.6 3.5 3.9 5.3 0 0.1 0 0.5 0 0.9q0.1-1 0.3-2.1c0.2-1.9 0.3-4 0.5-6l0.1-1.3q-0.6-0.1-1.1-0.3-0.6-0.2-1.1-0.4-0.6-0.3-1.1-0.5-0.6-0.3-1.1-0.6-0.4-0.4-0.8-0.8-0.3-0.4-0.6-0.8-0.3-0.5-0.4-1.1-0.2-0.5-0.2-1 0-0.5 0.2-1 0.2-0.5 0.6-0.8 0.4-0.3 0.9-0.5 0.4-0.1 0.9-0.1c2.1 0.3 3.7 3.6 4 5.4 0 0 0 0.5 0 1q0.2-1.7 0.4-3.3 0.1-0.7 0.2-1.4 0.2-0.7 0.3-1.4 0.1-0.7 0.3-1.4 0.2-0.7 0.4-1.3c-0.3-0.1-3.5-1-4.7-2q-0.4-0.3-0.8-0.7-0.3-0.4-0.6-0.9-0.3-0.4-0.4-1-0.2-0.5-0.2-1 0-0.6 0.2-1 0.2-0.5 0.6-0.8 0.4-0.4 0.9-0.5 0.5-0.2 1-0.1c2 0.3 3.6 3.6 3.9 5.4 0 0.1 0.1 1.8 0.1 2.3q0 0 0 0 0 0 0 0 0 0 0 0 0 0 0 0 0.2-0.7 0.4-1.4 0.3-0.6 0.5-1.3 0.3-0.6 0.6-1.2 0.3-0.7 0.6-1.3 0.3-0.5 0.6-1.1 0.3-0.5 0.6-1.1 0.3-0.5 0.6-1 0.3-0.6 0.7-1.1c0.8-1.3 1.6-2.4 2.4-3.4q0.6-0.8 1.2-1.5c-0.1 0 0.6-2.3 0.6-2.5 0.7-1.7 3-4.5 5-4.3q0.5 0 1 0.3 0.4 0.2 0.7 0.6 0.3 0.4 0.4 0.9 0.1 0.5 0 1-0.1 0.6-0.4 1-0.2 0.5-0.6 0.9-0.4 0.4-0.8 0.7-0.5 0.4-1 0.6-0.5 0.2-1.1 0.3-0.6 0.2-1.2 0.3-0.6 0.1-1.2 0.2-0.7 0-1.3 0-0.5 0.7-1.2 1.6c-0.7 1-1.5 2.1-2.3 3.4q-0.3 0.6-0.6 1.1c0.4-0.5 1.1-1.2 1.2-1.3 1.4-1.2 4.7-2.6 6.5-1.6q0.4 0.3 0.7 0.7 0.2 0.5 0.3 1 0.1 0.5 0 1-0.2 0.4-0.5 0.8-0.4 0.4-0.8 0.7-0.5 0.3-1 0.5-0.5 0.2-1.1 0.3-0.5 0.1-1 0-0.6-0.1-1.2-0.2-0.6-0.1-1.2-0.3-0.6-0.2-1.2-0.4-0.6-0.3-1.1-0.5-0.7 1.2-1.4 2.6-0.3 0.6-0.6 1.2-0.2 0.7-0.5 1.3-0.2 0.6-0.5 1.3-0.2 0.7-0.4 1.3l0.1 0.1c0.4-0.6 1.3-1.7 1.4-1.8 1.2-1.3 4.4-3.2 6.2-2.3q0.5 0.2 0.8 0.6 0.3 0.4 0.5 1 0.1 0.5 0 1-0.1 0.5-0.4 0.9-0.3 0.5-0.7 0.8-0.5 0.4-1 0.6-0.4 0.3-1 0.4-0.5 0.1-1 0.2c-1.6 0.1-4.8-1-5-1q-0.1 0.6-0.3 1.3-0.1 0.7-0.3 1.3-0.1 0.7-0.2 1.4-0.1 0.7-0.2 1.3c-0.1 1.4-0.2 2.8-0.3 4.1 0.2-0.4 1.3-1.9 1.4-2 1.3-1.3 4.4-3.1 6.3-2.3q0.4 0.3 0.7 0.7 0.4 0.4 0.5 0.9 0.1 0.5 0.1 1-0.1 0.5-0.4 0.9-0.3 0.4-0.8 0.8-0.4 0.3-0.9 0.6-0.4 0.2-1 0.4-0.5 0.1-1 0.1c-1.6 0.1-4.7-0.9-5-1 0 0.6-0.1 1.2-0.1 1.9-0.1 2-0.2 4.1-0.4 6.1q-0.1 1-0.2 2c0.4-0.5 1.2-1.6 1.2-1.7 1.3-1.2 4.4-3.1 6.3-2.2q0.4 0.2 0.8 0.6 0.3 0.4 0.4 0.9 0.1 0.5 0.1 1-0.1 0.5-0.4 0.9-0.3 0.4-0.8 0.8-0.4 0.3-0.9 0.6-0.5 0.2-1 0.3-0.5 0.2-1.1 0.2-0.6 0-1.2-0.1-0.6-0.1-1.1-0.2-0.6-0.1-1.2-0.3-0.6-0.1-1.2-0.3-0.2 1.7-0.5 3.3c-0.1 0.5-0.2 1-0.3 1.5l-0.4 1.3c-0.3 0.9-0.5 1.8-0.8 2.6l-0.4 1.3c0.3-0.7 0.9-1.7 0.9-1.8 1.1-1.5 3.9-3.8 5.8-3.2q0.6 0.1 0.9 0.5 0.4 0.3 0.7 0.8 0.2 0.5 0.2 1 0 0.5-0.2 1-0.3 0.5-0.7 0.9-0.3 0.4-0.8 0.7-0.4 0.3-0.9 0.6-0.5 0.2-1.1 0.3-0.6 0-1.2 0.1-0.6 0-1.3 0-0.6-0.1-1.2-0.1-0.6-0.1-1.3-0.2-0.4 1.5-1 2.9c-0.9 2.5-1.8 4.7-2.5 6.3h-1.5c0.8-1.7 1.8-4 2.9-6.8q0.5-1.2 1-2.6-0.5-0.2-1.1-0.5-0.5-0.3-1-0.6-0.5-0.3-1-0.6-0.5-0.4-1-0.8-0.3 0.2-0.7 0.4-0.3 0.2-0.6 0.4-0.4 0.2-0.7 0.3-0.4 0.2-0.7 0.3c0.2 1 0.5 2.1 0.7 3 0.7 3 1.2 5.6 1.5 7.3v0.2l-1.4 0.1c-0.2-1.8-0.6-4.3-1.3-7.3q-0.3-1.3-0.6-2.7-0.6 0.1-1.2 0.2-0.7 0.1-1.3 0.1-0.6 0-1.2 0-0.7 0-1.3-0.1-0.5-0.1-1-0.3-0.5-0.3-1-0.6-0.4-0.3-0.8-0.7-0.3-0.4-0.6-0.9-0.2-0.5-0.2-1 0-0.4 0.3-0.9 0.2-0.5 0.5-0.8 0.4-0.3 0.9-0.5c1.9-0.5 4.8 1.7 5.8 3.2 0 0.1 0.7 1.4 1 2q-0.2-0.8-0.4-1.7c-0.2-0.9-0.5-1.7-0.7-2.6-0.2-0.4-0.3-0.9-0.5-1.3-0.1-0.5-0.3-0.9-0.4-1.4-0.3-0.6-0.6-1.3-0.9-2q-0.5 0.2-1.1 0.4-0.6 0.2-1.1 0.3-0.6 0.1-1.2 0.1-0.6 0.1-1.2 0.1-0.5 0-1.1-0.1-0.5-0.2-1-0.4-0.5-0.3-0.9-0.6-0.4-0.4-0.7-0.8-0.3-0.4-0.4-1-0.1-0.5 0.1-0.9 0.1-0.5 0.4-0.9 0.3-0.4 0.8-0.7c1.8-0.8 5 1 6.2 2.3 0.1 0.1 0.3 0.4 0.6 0.8q-0.5-1-0.9-1.9c-0.9-1.8-1.9-3.6-2.9-5.4q-0.3-0.5-0.7-1.1-0.5 0.2-1.1 0.3-0.6 0.2-1.2 0.3-0.6 0.1-1.2 0.2-0.6 0.1-1.2 0.1-0.6 0-1.1-0.2-0.5-0.1-1-0.4-0.5-0.2-0.9-0.6-0.4-0.3-0.8-0.7-0.2-0.5-0.3-1-0.1-0.5 0-1 0.2-0.5 0.5-0.9 0.3-0.4 0.8-0.6c1.8-0.9 5 1 6.2 2.3 0 0.1 0.3 0.4 0.6 0.8-0.5-1-1-2-1.5-3q-0.3-0.6-0.6-1.2-0.2-0.7-0.5-1.4-0.3-0.6-0.5-1.3-0.3-0.6-0.5-1.3c-0.2 0.1-3.4 1.1-4.9 0.9q-0.5 0-1.1-0.1z"/>
			<path id="Layer" class="s6" d="m50.6 430h9.3v14h-9.3z"/>
		</g>
	</g>
	<g id="freepik--room-2--inject-2">
		<path id="Layer" class="s8" d="m420 130.8h22v11h-22z"/>
		<path id="Layer" class="s8" d="m448.4 130.8h22v11h-22z"/>
		<path id="Layer" class="s8" d="m433.9 144.7h22v11h-22z"/>
		<path id="Layer" class="s8" d="m433.9 115.8h22v11h-22z"/>
		<path id="Layer" class="s8" d="m420 171.9h22v11h-22z"/>
		<path id="Layer" class="s8" d="m448.4 171.9h22v11h-22z"/>
		<path id="Layer" class="s8" d="m448.4 55h22v11h-22z"/>
		<path id="Layer" class="s8" d="m421.4 91h22v11h-22z"/>
		<path id="Layer" class="s8" d="m399 66h22v11h-22z"/>
		<path id="Layer" class="s8" d="m383.9 48.8h22v11h-22z"/>
		<path id="Layer" class="s8" d="m433.9 185.8h22v11h-22z"/>
		<path id="Layer" class="s8" d="m299.9 210.1h22v11h-22z"/>
		<path id="Layer" class="s8" d="m328.3 210.1h22v11h-22z"/>
		<path id="Layer" class="s8" d="m354.8 223.9h22v11h-22z"/>
		<path id="Layer" class="s8" d="m281.5 65h103.4v135.8h-103.4z"/>
		<path id="Layer" class="s8" d="m326.6 86.8l0.3 13.6-45.4 45.4v-35.1l45.7-45.7h21.2zm58.3-7.9l-64.7 64.8 13 13h18.8l-44 44h-26.4v-0.6l36.4-36.5-16.5-16.5 82.1-82.1h1.3zm0 21.1l-32.7 32.6 32.7 32.6v16.9l-37.1-37.1-14.8-0.1 51.9-51.9zm-13.2 78.2l-22.6 22.5h-25.1l35.1-35.1zm-74.8-113.3l-15.3 15.3v-15.3z"/>
	</g>
	<g id="freepik--room-1--inject-2">
		<g id="Layer" style="opacity: .3">
			<path id="Layer" class="s4" d="m90 47.3h153v195.4h-153z"/>
			<path id="Layer" class="s4" d="m96 55h141v180h-141z"/>
			<path id="Layer" class="s4" d="m96 144h141v10h-141z"/>
			<path id="Layer" class="s4" d="m231.2 64.5l-29.2 29.3"/>
			<path id="Layer" class="s4" d="m192.1 113.2l-4.5 4.5"/>
			<path id="Layer" class="s4" d="m210.9 94.4l-14 14"/>
			<path id="Layer" class="s4" d="m117.7 65.7l-9.2 9.3"/>
			<path id="Layer" class="s4" d="m204.7 189.6l-5.1 5.1"/>
			<path id="Layer" class="s4" d="m224.7 169.6l-15.6 15.6"/>
			<path id="Layer" class="s4" d="m231.2 161.5l-29.2 29.3"/>
			<path id="Layer" class="s4" d="m192.1 210.2l-4.5 4.5"/>
			<path id="Layer" class="s4" d="m210.9 191.4l-14 14"/>
			<path id="Layer" class="s4" d="m117.7 162.7l-9.2 9.3"/>
			<path id="Layer" class="s4" d="m204.7 286.6l-5.1 5.1"/>
			<path id="Layer" class="s4" d="m224.7 266.6l-15.6 15.6"/>
		</g>
	</g>
	<g id="freepik--plant-2--inject-2">
		<path id="Layer" class="s9" d="m407.3 437.2c0 0-1-12.3 0-19.8 1-7.5 5.8-10.2 6.2-13.7 0.3-3.4-1.7-6.8 0.3-10.2q0.7-1 1.4-2 0.7-0.9 1.5-1.8 0.8-0.9 1.6-1.8 0.8-0.8 1.7-1.6c0.6-0.5-2.7 5.1-0.7 9.2 2.1 4.1 5.2 8.6 3.1 12-2.2 3.5-4.5 6.9-3.8 9.6 0.7 2.7 4.5 2.1 3.8 8.2-0.7 6.2-2.4 8.6-2.4 8.6l0.3 3.4-11.6-0.4"/>
		<path id="Layer" class="s9" d="m406.4 437.1c0 0 2.5-2.6-1.5-6.4-2.5-2.5-5-6.2-5.1-10-0.1-1.9 0.8-3.4 0.2-5.2-0.6-1.9-2.6-3.1-3.2-5.3-1-4.1 1.8-8 2.1-9.3 0.4-1.4 0-1.4-1.8-5.1q-0.4-0.8-0.8-1.6-0.3-0.8-0.5-1.7-0.2-0.8-0.3-1.7-0.2-0.9-0.2-1.8 0.3 0.9 0.7 1.7 0.5 0.8 1.2 1.4 0.7 0.7 1.5 1.1 0.8 0.5 1.7 0.7c4.3 1.1 6.8 3.8 6.5 9.1-0.3 5.2-0.7 6.5 3 7.5 5.7 1.5 5.1 5.4 4.5 10.2-0.4 3-0.6 3.8 1.2 6 1.4 1.8 3.7 1.5 1.9 4.5-1.9 3.4 0.9 6.3-2.5 7.1-3.4 0.9-8.6-1.2-8.6-1.2z"/>
		<path id="Layer" class="s9" d="m412.3 438.6c-3.4-1-0.5-3.7-2.4-7.2-1.6-3.1 0.6-2.7 2.1-4.4 1.8-2.2 1.7-3 1.4-6-0.5-4.8-1-8.7 4.8-10.1 3.7-0.8 3.3-2.1 3.2-7.4-0.2-5.2 2.4-7.9 6.7-8.9q0.9-0.2 1.7-0.6 0.9-0.4 1.6-1 0.6-0.7 1.1-1.4 0.5-0.8 0.8-1.7 0 0.9-0.2 1.7-0.1 0.9-0.4 1.8-0.2 0.8-0.5 1.7-0.4 0.8-0.8 1.5c-2 3.6-2.3 3.7-2 5 0.3 1.4 2.9 5.3 1.8 9.5-0.6 2.1-2.6 3.3-3.3 5.2-0.6 1.7 0.2 3.2 0.1 5.1-0.2 3.9-2.8 7.5-5.5 9.9-4 3.7-1.6 6.4-1.6 6.4 0 0-5.2 1.9-8.6 0.9z"/>
		<path id="Layer" class="s3" d="m428.3 434.5v17.5q0 0.1 0 0.3 0 0.1 0 0.2 0 0.1 0 0.3 0 0.1-0.1 0.2 0 0.3 0 0.7-0.1 0.3-0.2 0.7 0 0.3-0.1 0.6-0.1 0.3-0.2 0.7-0.6 1.6-1.6 2.9-1.1 1.4-2.5 2.4-1.3 1-3 1.5-1.6 0.5-3.3 0.5h-6q-1.7 0-3.3-0.5-1.6-0.6-3-1.5-1.4-1-2.4-2.4-1-1.3-1.6-2.9-0.1-0.4-0.2-0.7-0.1-0.3-0.2-0.6-0.1-0.4-0.1-0.7-0.1-0.4-0.1-0.7 0-0.1 0-0.2 0-0.2 0-0.3 0-0.1 0-0.2 0-0.2 0-0.3v-17.5z"/>
		<path id="Layer" class="s10" d="m400.3 447h28v0.7h-28z"/>
		<path id="Layer" class="s10" d="m428.3 451.4q-0.1 0.3-0.1 0.7-0.1 0.3-0.2 0.6 0 0.4-0.1 0.7-0.1 0.3-0.2 0.7h-26.7q-0.1-0.4-0.2-0.7-0.1-0.3-0.2-0.7-0.1-0.3-0.1-0.6-0.1-0.4-0.1-0.7z"/>
	</g>
	<g id="freepik--plant-1--inject-2">
		<path id="Layer" class="s2" d="m27.1 170.4l12.6 121.2"/>
		<path id="Layer" class="s2" d="m37.9 274.5l-5.6-5.9"/>
		<path id="Layer" class="s11" d="m21.1 263.3c0.8-2.9 9 0.6 10.6 2q0.6 0.5 1 1.1 0.5 0.6 0.8 1.2 0.3 0.7 0.5 1.4 0.1 0.8 0.2 1.5c-5.5 2.2-14-4-13.1-7.2z"/>
		<path id="Layer" class="s2" d="m34.2 270.5l-7.9-4.9"/>
		<path id="Layer" class="s2" d="m39.3 287.8l-5.5-4.5"/>
		<path id="Layer" class="s11" d="m22.6 278c0.8-2.9 9.1 0.6 10.7 2q0.5 0.5 1 1.1 0.4 0.6 0.7 1.2 0.4 0.7 0.5 1.4 0.2 0.8 0.2 1.5c-5.5 2.2-13.9-4-13.1-7.2z"/>
		<path id="Layer" class="s2" d="m35.7 285.2l-7.9-4.9"/>
		<path id="Layer" class="s2" d="m34.1 237.7l-5.6-5"/>
		<path id="Layer" class="s11" d="m17.4 227.4c0.8-2.9 9 0.6 10.6 2q0.6 0.5 1 1.1 0.5 0.6 0.8 1.3 0.3 0.6 0.4 1.3 0.2 0.8 0.2 1.5c-5.4 2.2-13.9-4-13-7.2z"/>
		<path id="Layer" class="s2" d="m30.4 234.6l-7.9-4.9"/>
		<path id="Layer" class="s2" d="m35.7 253.3l-5.6-5.9"/>
		<path id="Layer" class="s11" d="m18.9 242.1c0.8-2.8 9.1 0.6 10.7 2q0.5 0.5 1 1.1 0.4 0.6 0.7 1.3 0.4 0.6 0.5 1.4 0.2 0.7 0.2 1.4c-5.5 2.2-14-4-13.1-7.2z"/>
		<path id="Layer" class="s2" d="m31.9 249.3l-7.8-4.9"/>
		<path id="Layer" class="s2" d="m31.6 214.5l-5.5-5.7"/>
		<path id="Layer" class="s11" d="m14.9 203.5c0.8-2.8 9 0.6 10.6 2q0.5 0.5 1 1.1 0.4 0.6 0.8 1.3 0.3 0.6 0.4 1.4 0.2 0.7 0.2 1.4c-5.4 2.2-13.9-4-13-7.2z"/>
		<path id="Layer" class="s2" d="m27.9 210.7l-7.8-4.9"/>
		<path id="Layer" class="s2" d="m28.9 188.9l-5.3-4.1"/>
		<path id="Layer" class="s11" d="m12.4 179.5c0.8-2.8 9 0.6 10.6 2q0.6 0.5 1 1.1 0.5 0.6 0.8 1.3 0.3 0.6 0.4 1.4 0.2 0.7 0.2 1.4c-5.4 2.2-13.9-4-13-7.2z"/>
		<path id="Layer" class="s2" d="m25.4 186.7l-7.8-4.9"/>
		<path id="Layer" class="s2" d="m37.4 266.3l4.6-7.6"/>
		<path id="Layer" class="s11" d="m40.6 261q-0.1-0.7-0.1-1.5 0-0.7 0.2-1.4 0.1-0.8 0.5-1.4 0.3-0.7 0.7-1.3c1.3-1.7 8.6-6.8 10-4.1 1.5 2.9-5.5 10.8-11.3 9.7z"/>
		<path id="Layer" class="s2" d="m40.6 261l5.6-5.2"/>
		<path id="Layer" class="s2" d="m33.4 227.6l4.6-7.6"/>
		<path id="Layer" class="s11" d="m36.6 222.3q-0.2-0.7-0.2-1.5 0.1-0.7 0.2-1.4 0.2-0.7 0.5-1.4 0.3-0.7 0.8-1.3c1.2-1.7 7-5.9 8.4-3.2 1.5 2.9-3.9 9.9-9.7 8.8z"/>
		<path id="Layer" class="s2" d="m36.6 222.3l7.1-6.8"/>
		<path id="Layer" class="s2" d="m31.6 210.6l4.6-7.6"/>
		<path id="Layer" class="s11" d="m34.8 205.3q-0.1-0.7-0.1-1.5 0-0.7 0.2-1.4 0.1-0.8 0.4-1.4 0.4-0.7 0.8-1.3c1.3-1.7 8.6-6.8 10-4.1 1.5 2.9-5.5 10.7-11.3 9.7z"/>
		<path id="Layer" class="s2" d="m34.8 205.3l7.1-6.8"/>
		<path id="Layer" class="s2" d="m29 185.7l4.6-7.6"/>
		<path id="Layer" class="s11" d="m32.2 180.4q-0.1-0.8-0.1-1.5 0-0.8 0.2-1.5 0.1-0.7 0.4-1.4 0.4-0.6 0.8-1.2c1.3-1.7 8.6-6.8 10-4.1 1.5 2.9-5.5 10.7-11.3 9.7z"/>
		<path id="Layer" class="s2" d="m32.2 180.4l7.1-6.8"/>
		<path id="Layer" class="s11" d="m27 169.7q-0.1-0.7-0.1-1.4 0-0.8 0.2-1.5 0.1-0.7 0.4-1.4 0.4-0.7 0.8-1.2c1.3-1.8 8.6-6.9 10-4.2 1.5 3-5.5 10.8-11.3 9.7z"/>
		<path id="Layer" class="s2" d="m27 169.7l7.1-6.7"/>
		<path id="Layer" class="s11" d="m27.4 170q-0.7 0.1-1.5 0-0.7-0.1-1.4-0.4-0.7-0.2-1.3-0.6-0.7-0.4-1.2-0.9c-1.6-1.4-5.9-9.3-3-10.3 3-1.2 10.1 6.6 8.4 12.2z"/>
		<path id="Layer" class="s2" d="m27.4 170l-6-7.7"/>
		<path id="Layer" class="s2" d="m47.3 135.6v155.7"/>
		<path id="Layer" class="s2" d="m62.7 188.3l-10.8 103.6"/>
		<path id="Layer" class="s2" d="m52.1 291.2l-3.1-3.6"/>
		<path id="Layer" class="s11" d="m37.7 277.9c1.4-2.7 8.7 2.4 10 4.1q0.4 0.6 0.8 1.3 0.3 0.6 0.5 1.4 0.1 0.7 0.1 1.4 0 0.8-0.1 1.5c-5.8 1.1-12.8-6.7-11.3-9.7z"/>
		<path id="Layer" class="s2" d="m49 287.6l-6.7-6.4"/>
		<path id="Layer" class="s2" d="m55.9 254.2l-4.6-3.8"/>
		<path id="Layer" class="s11" d="m41.4 242c1.4-2.7 8.8 2.4 10 4.2q0.5 0.5 0.8 1.2 0.3 0.7 0.5 1.4 0.1 0.7 0.2 1.5 0 0.7-0.2 1.4c-5.8 1.1-12.8-6.7-11.3-9.7z"/>
		<path id="Layer" class="s2" d="m52.7 251.7l-6.7-6.4"/>
		<path id="Layer" class="s2" d="m54.4 271.7l-4.6-7.5"/>
		<path id="Layer" class="s11" d="m39.9 256.7c1.4-2.6 8.7 2.5 10 4.2q0.4 0.5 0.8 1.2 0.3 0.7 0.4 1.4 0.2 0.7 0.2 1.5 0 0.7-0.1 1.4c-5.8 1.1-12.8-6.7-11.3-9.7z"/>
		<path id="Layer" class="s2" d="m51.2 266.4l-6.7-6.4"/>
		<path id="Layer" class="s2" d="m58.2 230.7l-4.4-5.1"/>
		<path id="Layer" class="s11" d="m43.9 218.1c1.4-2.7 8.7 2.5 10 4.2q0.4 0.5 0.8 1.2 0.3 0.7 0.5 1.4 0.1 0.7 0.1 1.5 0.1 0.7-0.1 1.4c-5.8 1.1-12.8-6.7-11.3-9.7z"/>
		<path id="Layer" class="s2" d="m55.2 227.8l-6.7-6.4"/>
		<path id="Layer" class="s2" d="m60.6 208.2l-4.3-6.6"/>
		<path id="Layer" class="s11" d="m46.4 194.1c1.4-2.7 8.7 2.5 10 4.2q0.4 0.5 0.8 1.2 0.3 0.7 0.4 1.4 0.2 0.7 0.2 1.5 0 0.7-0.1 1.4c-5.8 1.1-12.8-6.7-11.3-9.7z"/>
		<path id="Layer" class="s2" d="m57.7 203.8l-6.7-6.4"/>
		<path id="Layer" class="s2" d="m53 284.2l6.1-6.5"/>
		<path id="Layer" class="s11" d="m57.3 279.7q0-0.8 0.2-1.5 0.1-0.7 0.4-1.4 0.4-0.7 0.8-1.2 0.4-0.6 1-1.1c1.6-1.4 9.8-4.9 10.6-2 0.9 3.2-7.6 9.4-13 7.2z"/>
		<path id="Layer" class="s2" d="m57.3 279.7l8.3-5.2"/>
		<path id="Layer" class="s2" d="m57 245.5l6.2-6.5"/>
		<path id="Layer" class="s11" d="m61.3 241q0-0.7 0.2-1.5 0.1-0.7 0.5-1.4 0.3-0.6 0.7-1.2 0.5-0.6 1-1.1c1.6-1.4 9.9-4.9 10.6-2 0.9 3.2-7.5 9.4-13 7.2z"/>
		<path id="Layer" class="s2" d="m61.3 241l8.3-5.2"/>
		<path id="Layer" class="s2" d="m58.8 228.5l6.1-6.5"/>
		<path id="Layer" class="s11" d="m63.1 224q0-0.7 0.1-1.5 0.2-0.7 0.5-1.4 0.3-0.6 0.8-1.2 0.4-0.6 1-1.1c1.6-1.4 9.8-4.9 10.6-2 0.9 3.2-7.6 9.4-13 7.2z"/>
		<path id="Layer" class="s2" d="m63.1 223.9l8.3-5.1"/>
		<path id="Layer" class="s2" d="m61.3 202.3l6.2-5.2"/>
		<path id="Layer" class="s11" d="m65.7 199q0-0.7 0.1-1.5 0.2-0.7 0.5-1.4 0.3-0.6 0.8-1.2 0.4-0.6 1-1.1c1.6-1.4 9.8-4.9 10.6-2 0.9 3.2-7.6 9.4-13 7.2z"/>
		<path id="Layer" class="s11" d="m65.7 199l8.3-5.2"/>
		<path id="Layer" class="s11" d="m62.7 187.5q0-0.7 0.2-1.4 0.2-0.8 0.5-1.4 0.3-0.7 0.7-1.3 0.5-0.6 1.1-1.1c1.5-1.4 9.8-4.8 10.6-2 0.8 3.2-7.6 9.4-13.1 7.2z"/>
		<path id="Layer" class="s2" d="m62.7 187.5l8.4-5.1"/>
		<path id="Layer" class="s11" d="m63.1 187.9q-0.8-0.1-1.5-0.3-0.7-0.3-1.3-0.7-0.6-0.4-1.2-0.9-0.5-0.5-0.9-1.1c-1.3-1.7-3.9-10.3-0.9-10.8 3.2-0.4 8.5 8.6 5.8 13.8z"/>
		<path id="Layer" class="s2" d="m63.1 187.9l-4.3-8.8"/>
		<path id="Layer" class="s2" d="m47.1 274.3l-5.1-6.8"/>
		<path id="Layer" class="s11" d="m31.4 261.1c1.1-2.8 9 1.5 10.4 3.1q0.5 0.5 0.9 1.2 0.4 0.6 0.6 1.3 0.3 0.7 0.4 1.4 0 0.8 0 1.5c-5.7 1.7-13.4-5.4-12.3-8.5z"/>
		<path id="Layer" class="s2" d="m43.7 269.6l-7.3-5.7"/>
		<path id="Layer" class="s2" d="m47.3 241.6l-5.3-4.8"/>
		<path id="Layer" class="s11" d="m31.4 230.4c1.1-2.8 9 1.5 10.4 3.1q0.5 0.5 0.9 1.1 0.4 0.7 0.6 1.4 0.3 0.7 0.4 1.4 0 0.7 0 1.5c-5.7 1.6-13.4-5.4-12.3-8.5z"/>
		<path id="Layer" class="s2" d="m43.7 238.9l-7.3-5.7"/>
		<path id="Layer" class="s2" d="m47.4 207.7l-5.4-7"/>
		<path id="Layer" class="s11" d="m31.4 194.3c1.1-2.8 9 1.5 10.4 3.1q0.5 0.5 0.9 1.1 0.4 0.7 0.6 1.4 0.3 0.7 0.4 1.4 0 0.8 0 1.5c-5.7 1.6-13.4-5.4-12.3-8.5z"/>
		<path id="Layer" class="s2" d="m43.7 202.8l-7.3-5.7"/>
		<path id="Layer" class="s2" d="m47.1 181.2l-5.1-4.5"/>
		<path id="Layer" class="s11" d="m31.4 170.3c1.1-2.8 9 1.5 10.4 3.1q0.5 0.5 0.9 1.1 0.4 0.7 0.6 1.4 0.3 0.7 0.4 1.4 0 0.7 0 1.5c-5.7 1.6-13.4-5.5-12.3-8.5z"/>
		<path id="Layer" class="s2" d="m43.7 178.8l-7.3-5.7"/>
		<path id="Layer" class="s2" d="m47.4 157.2l-5.3-3.9"/>
		<path id="Layer" class="s11" d="m31.4 146.2c1.1-2.8 9 1.5 10.4 3q0.5 0.6 0.9 1.2 0.4 0.6 0.6 1.3 0.3 0.7 0.4 1.5 0 0.7 0 1.4c-5.7 1.7-13.4-5.4-12.3-8.4z"/>
		<path id="Layer" class="s2" d="m43.7 154.6l-7.3-5.7"/>
		<path id="Layer" class="s2" d="m48.4 282.4l4.3-5.5"/>
		<path id="Layer" class="s11" d="m51.1 279q-0.1-0.7 0-1.5 0.1-0.7 0.4-1.4 0.2-0.7 0.6-1.4 0.4-0.6 0.9-1.1c1.4-1.6 9.3-5.9 10.4-3.1 1.1 3.1-6.7 10.1-12.3 8.5z"/>
		<path id="Layer" class="s2" d="m51.1 279l7.7-6"/>
		<path id="Layer" class="s2" d="m47.3 235.1l5.4-7.1"/>
		<path id="Layer" class="s11" d="m51.1 230.1q-0.1-0.7 0-1.5 0.1-0.7 0.4-1.4 0.2-0.7 0.6-1.3 0.4-0.7 0.9-1.2c1.4-1.6 9.3-5.9 10.4-3.1 1.1 3.1-6.7 10.2-12.3 8.5z"/>
		<path id="Layer" class="s2" d="m51.1 230.1l7.7-6"/>
		<path id="Layer" class="s2" d="m47.3 210.9l5.4-7"/>
		<path id="Layer" class="s11" d="m51.1 206q-0.1-0.7 0-1.5 0.1-0.7 0.4-1.4 0.2-0.7 0.6-1.4 0.4-0.6 0.9-1.1c1.4-1.6 9.3-5.9 10.4-3.1 1.1 3.1-6.7 10.1-12.3 8.5z"/>
		<path id="Layer" class="s2" d="m51.1 206l7.7-6"/>
		<path id="Layer" class="s2" d="m47.3 179l5.4-7"/>
		<path id="Layer" class="s11" d="m51.1 174.1q-0.1-0.7 0-1.5 0.1-0.7 0.4-1.4 0.2-0.7 0.6-1.3 0.4-0.7 0.9-1.2c1.4-1.6 9.3-5.9 10.4-3.1 1.1 3.1-6.7 10.1-12.3 8.5z"/>
		<path id="Layer" class="s2" d="m51.1 174.1l7.7-6"/>
		<path id="Layer" class="s2" d="m47.6 151.5l5.3-4.1"/>
		<path id="Layer" class="s11" d="m51.1 149q-0.1-0.7 0-1.5 0.1-0.7 0.4-1.4 0.2-0.7 0.6-1.3 0.4-0.7 0.9-1.2c1.4-1.5 9.3-5.9 10.4-3 1.1 3-6.7 10.1-12.3 8.4z"/>
		<path id="Layer" class="s2" d="m51.1 149l7.7-6"/>
		<path id="Layer" class="s11" d="m47 137.9q-0.1-0.7 0-1.5 0.1-0.7 0.4-1.4 0.2-0.7 0.6-1.3 0.4-0.7 0.9-1.2c1.4-1.6 9.3-5.9 10.3-3.1 1.2 3.1-6.6 10.2-12.2 8.5z"/>
		<path id="Layer" class="s2" d="m47 137.9l7.8-6"/>
		<path id="Layer" class="s11" d="m47.4 138.2q-0.8 0-1.5-0.1-0.7-0.2-1.4-0.5-0.7-0.3-1.2-0.8-0.6-0.4-1.1-1c-1.4-1.6-4.9-9.8-2-10.6 3.2-0.9 9.4 7.6 7.2 13z"/>
		<path id="Layer" class="s2" d="m47.4 138.2l-5.2-8.3"/>
	</g>
	<g id="freepik--character-2--inject-2">
		<path id="Layer" class="s11" d="m426 188.8c3.2 1.5 31.2 13.6 32.4 17.7 1.1 4.1-4.7 87-4.7 87l-80.5 0.1-13.6-24.1 8.9-7.3c0 0 13.3-53.3 15.3-56.3 4.6-6.8 28-18 28-18 2.7-1.5 11-0.6 14.2 0.9z"/>
		<path id="Layer" class="s12" d="m401.2 248.3l14.9 12.4-11.8-6.7"/>
		<path id="Layer" class="s12" d="m395.2 243.4l3.6 2.9"/>
		<path id="Layer" class="s13" d="m316.2 284.2l-2.2 0.4c0 0-1 1.7-1.7 2.8-0.7 1.1-1.4 2.6-2.4 2.2-0.9-0.4 1.2-5.6 2.3-7.4 1.1-1.8 3.9-2.2 3.9-2.2z"/>
		<path id="Layer" class="s13" d="m319.7 279.3c0 0-2.4 8.6-3.5 10.5-1.1 2-2.5 1.4-2.6 0.3-0.2-1.1 1.5-10.3 2.3-11.7 0.8-1.4 4-1.1 4-1.1z"/>
		<path id="Layer" class="s13" d="m326 278.1q-0.3 0.5-0.5 0.9-0.3 0.5-0.6 0.9-0.2 0.5-0.5 0.9c-1.1 1.7-5.2 8.5-5.9 9.6q-0.2 0.3-0.6 0.5-0.4 0.3-0.8 0.3-0.5 0-0.9-0.1-0.4-0.1-0.7-0.4c-0.4-0.7 2.4-14.9 4.3-15.3 2-0.4 6.7 1.8 6.7 1.8q-0.3 0.4-0.5 0.9z"/>
		<path id="Layer" class="s13" d="m341.4 287.7l-3 1.6q-1.1 0.4-2.1 0.8-1.1 0.4-2.2 0.6-1.1 0.3-2.2 0.4-1.1 0.2-2.2 0.3c-3 0-5.7-0.6-3.9-1.8 1.7-1.3 7.2-4 7.2-4 0 0-3.7-3.9-5.2-2.7-1.5 1.2-5.1 6.9-6.3 8.2-1.2 1.2-4.2 0.9-3-3 1.2-3.9 7-11.1 8.5-12.4 1.5-1.2 9.3 3.3 10.2 3 0.8-0.3 19-7.9 22-9.4 5-2.6 7.4-6.8 10.7-2 3.3 4.8 5.1 17.2 5.1 17.2-9.9 3.3-33.6 3.2-33.6 3.2z"/>
		<path id="Layer" class="s14" d="m445.1 123.4c8.8 13.2 15.9 18.9 16.8 30.6 0.9 11.8-8.5 22.1-23.3 24.8-14.7 2.7-50.1 0-56.6-10.3-6.4-10.4 9.8-26.9 9.2-30.4-0.6-3.5-5-4.4-3-11.2 2.1-6.8 25.4-16.8 25.4-16.8 6.2-2.1 22.7 0 31.5 13.3z"/>
		<path id="Layer" class="s13" d="m398.6 164.6c-1.8 0.3-5.7-5.9-5.7-8.8 0-2.9 3.9-3.2 3.9-3.2 0 0 3.5 11.7 1.7 12z"/>
		<path id="Layer" class="s13" d="m426 140.1q1 1.1 2.1 2.1 1 1 2.2 2 1.1 1 2.2 2 1.1 1 2.3 1.9 0.9 0.6 1.9 1.2 0.9 0.6 1.9 1.1 0.9 0.6 1.9 1.1 1 0.5 2 1l-1.2 3.8q-0.3 0.9-0.8 1.7-0.5 0.8-1.2 1.5-0.6 0.7-1.4 1.3-0.8 0.5-1.6 0.9c0 0 0.2 6.2-0.9 9.1-2.1 5.3-9.1 11.5-9.1 11.5l-0.6 4.7 3.2 3.9c0 0-5.3 14.4-10.6 20.9-5.3 6.5-10 9.4-10.3 3.5-0.3-5.9 3.3-27.5 2.3-28.9q-1.4-2-2.8-4.2-1.4-2.1-2.8-4.3-1.3-2.1-2.5-4.4-1.3-2.2-2.5-4.4c-4.4-8.9-3.5-22.1-3.8-27.4-0.3-5.4 13.3-14.8 13.3-14.8 4.7 7.1 16.1 12.5 16.8 13.2z"/>
		<path id="Layer" class="s12" d="m415.4 166.7c0 0-4.8 3.3-6.5 0-1.8-3.3-0.3-18.3-0.3-18.3"/>
		<path id="Layer" class="s12" d="m410 172.9c0 0 7.7 1.5 11.8-3.8"/>
		<path id="Layer" class="s15" d="m419.2 152c-1 0-1.8-1-1.8-2.3 0-1.2 0.8-2.2 1.8-2.2 1 0 1.8 1 1.8 2.3 0 1.2-0.8 2.2-1.8 2.2z"/>
		<path id="Layer" class="s15" d="m402.7 152c-1 0-1.8-1-1.8-2.3 0-1.2 0.8-2.2 1.8-2.2 1 0 1.8 1 1.8 2.3 0 1.2-0.8 2.2-1.8 2.2z"/>
		<path id="Layer" class="s12" d="m415.9 141.7c0 0 4.5-1.8 7.1 0.8"/>
		<path id="Layer" class="s12" d="m405.9 141.9c0 0-4.4-2-6.2 2.1"/>
		<path id="Layer" class="s2" d="m383.9 238.3l3.7 19.4-7.5 28.2"/>
		<path id="Layer" class="s2" d="m382.5 230.7l0.6 3.2"/>
		<path id="Layer" class="s11" d="m451.3 200.9c0 0 9.3 4.3 8.7 7.3-0.5 3 2.2 68.9-1 73.5-3.2 4.5-12.1 3-12.1 3 0 0-3.8-11.9-7.7-15.5-3.9-3.5-5.3-2.3-5.3-2.3l2.7-40.1"/>
		<path id="Layer" class="s13" d="m365.3 286.6c-2.2 1.3-6 3-8.5 1.9-2.5-1.1 1.1-1.9 3.8-3.6q0.7-0.4 1.3-0.9 0.6-0.4 1.2-0.9 0.6-0.6 1.2-1.1 0.5-0.6 1-1.2c0 0 2.2 4.4 0 5.8z"/>
		<path id="Layer" class="s13" d="m420.3 275.3c6-3.6 11.4-9.7 18.9-10 7.5-0.2 14.3 5 17.6 11.4 1.1 2 1.9 4.5 1.2 6.7-1.3 4.2-6.5 5.4-10.9 5.9l-24 2.9c-14.4 1.7-29.5 3.3-42.9-2.4q0 0.5-0.2 1-0.1 0.4-0.3 0.9-0.2 0.4-0.5 0.8-0.2 0.4-0.6 0.7c-1 0.9-2.7 0.8-3.2-0.3q-0.4 0.3-0.9 0.5-0.5 0.2-1 0.3-0.6 0-1.1-0.1-0.5-0.1-1-0.4c-0.2-0.2-1.5 0.5-2.8 0.2-0.5 0-2.1-0.8-2.6-0.9q-0.2 0-0.5-0.1-0.2 0-0.4-0.2-0.2-0.1-0.4-0.2-0.2-0.2-0.3-0.4-0.1-0.1-0.1-0.3-0.1-0.1-0.1-0.3 0-0.2 0-0.3-0.1-0.2 0-0.3-0.1-1.1-0.1-2.2 0-1 0.1-2.1 0.1-1 0.3-2.1 0.2-1 0.5-2.1c3.3-10.8 15.4-4.9 21.9-0.6 2.2 1.4 4.5 2.9 7.1 3.2q0.7 0 1.4 0 0.8-0.1 1.5-0.2 0.7-0.1 1.4-0.3 0.7-0.2 1.4-0.4c6.9-1.9 14.2-4.4 20.6-8.2z"/>
		<path id="Layer" class="s2" d="m380.2 289.8l1.1-4.1"/>
		<path id="Layer" class="s2" d="m375.4 292.3c0 0 0.6-11.2 2.5-13.7"/>
		<path id="Layer" class="s2" d="m371.6 292.6c0 0-0.8-9.9 1.1-14.5"/>
		<path id="Layer" class="s2" d="m367.4 292.6c0 0-0.7-7.6 0.6-12.9"/>
	</g>
	<g id="freepik--character-1--inject-2">
		<path id="Layer" class="s14" d="m35.2 293.7l-7.5-70.3q-0.1-0.8 0.2-1.5 0.2-0.8 0.7-1.4 0.6-0.6 1.3-0.9 0.7-0.3 1.5-0.3h48.5q0.6 0 1.2 0.2 0.6 0.2 1.1 0.6 0.5 0.4 0.8 0.9 0.4 0.6 0.5 1.2l15.9 71.5z"/>
		<path id="Layer" class="s13" d="m112 177c5.1 1.1 16.4 9.5 25 20.5 8.7 10.9 22.5 30.8 22.5 30.8l-3.9 26.3-26.4-12c0 0 1.2 7.3 2 11.5 0.8 4.2 8.7 39.5 8.7 39.5h-80.2c0 0 2.5-90 3.4-96.4 0.8-6.5 31.4-22.7 31.4-22.7 0 0 12.5 1.4 17.5 2.5z"/>
		<path id="Layer" class="s12" d="m129.2 242.6l1.6-12.8 4.2-15"/>
		<path id="Layer" class="s12" d="m130.8 229.8l0.8-13.3"/>
		<path id="Layer" class="s12" d="m121.4 248.4q1.1 0.5 2 0.9"/>
		<path id="Layer" class="s12" d="m93.9 240.5c0 0 14.2 3.3 24 6.6"/>
		<path id="Layer" class="s12" d="m114.9 219.3l2 13c0 0-3.1 1.1-3.7-0.3-0.6-1.4-2-23.8-2-23.8"/>
		<path id="Layer" class="s12" d="m86.2 221.5l2.1-3.1"/>
		<path id="Layer" class="s12" d="m77.5 233.7l6.5-9.2"/>
		<path id="Layer" class="s13" d="m105.9 168.1q1 0.1 2.1 0.4 1.1 0.3 2.1 0.7 1 0.5 1.9 1c3.9 2.6 7.6 5.9 11.8 14.3 4.2 8.4 4.8 21.6 4.8 21.6 0 0-16.9-9.8-18.8-9.2-2 0.5-16.3 13.2-16.3 13.2l-5-26.4c0 0 2.9-10.4 4.5-12.1 1.7-1.6 10.7-3.6 10.7-3.6q1.1 0 2.2 0.1z"/>
		<path id="Layer" class="s13" d="m125.8 173.1c0 0-2.5 3.3-3.9 5-1.4 1.7-7.6 25.5-9.5 27.5-2 2-11.3-22.2-12.9-28-1.7-5.9 1.1-3.7 1.6-8.4 0.6-4.8 2.6-19.4 2.6-19.4z"/>
		<path id="Layer" class="s14" d="m105.5 151.8l15.8 16.5 1.7 4.9-21.4-7.6c0.6-4.8 1.5-11.6 1.9-14.5z"/>
		<path id="Layer" class="s13" d="m83.3 214l-10.1 48q-0.9 0.3-1.7 0.7-0.8 0.3-1.6 0.7-0.8 0.4-1.6 0.8-0.8 0.4-1.6 0.9c-4.8 2.5-13.5 16.8-13.5 16.8 0 0-9.3-0.9-11.2-6.2-1.9-5.3 17.7-74.2 18-77.4 0.3-3.1 10.9-9 10.9-9"/>
		<path id="Layer" class="s13" d="m140.2 278.2q0.5 0.6 1 1.2 0.6 0.6 1.2 1.1 0.6 0.6 1.2 1 0.7 0.5 1.3 0.9c2.8 1.7 6.5 2.6 4 3.7-2.5 1.1-6.5-0.6-8.7-2-2.3-1.5 0-5.9 0-5.9z"/>
		<path id="Layer" class="s13" d="m101.3 279.9c5.1 2 9.5 2.8 11.2 2 1.7-0.9 13.5-7.9 14.9-8.4 1.4-0.6 4.2 0 4.2 0l1.4-0.4q0.4-0.1 0.8-0.1 0.4 0 0.8 0.1 0.4 0.1 0.7 0.2 0.4 0.2 0.7 0.4l0.9 0.6c0 0 2.8 0 3.4 3.9 0.5 4 1.9 9.6 1.1 11.2-0.8 1.7-2.8 0-2.8 0 0 0 0 0.9-1.7 1.5q-0.4 0.1-0.8 0.1-0.4 0-0.8-0.1-0.4 0-0.8-0.2-0.4-0.2-0.7-0.4-0.2 0.2-0.5 0.3-0.2 0.1-0.4 0.2-0.3 0.1-0.6 0.2-0.2 0.1-0.5 0.1c-0.9 0-2-1.1-2-1.1 0 0 0.3 1.7-1.7 1.7-2 0-2.6-4.7-3.4-4.5q-1.1 0.3-2.3 0.7-1.2 0.4-2.3 0.8-1.2 0.5-2.3 0.9-1.2 0.5-2.3 1c-4.5 2-16.6 1.1-23 0-6.5-1.2-32.8-2.6-39.8-4.3-7-1.6-11.5-6.6-2.8-16.8 8.7-10.1 18.8-9.8 22.1-8.1q0.9 0.5 1.7 1 0.8 0.6 1.5 1.2 0.8 0.7 1.5 1.4 0.7 0.7 1.3 1.4c0.3 0.4 0.5 0.6 0.5 0.6 2.5 4.2 17.8 10.9 22.8 12.9z"/>
		<path id="Layer" class="s2" d="m124.8 287.2l-0.9-4"/>
		<path id="Layer" class="s13" d="m55.8 286.9c-1.3-0.2-2.3-0.4-3.1-0.6-7-1.6-11.5-6.6-2.8-16.8 8.7-10.1 18.8-9.8 22.1-8.1q0.9 0.5 1.7 1 0.8 0.6 1.5 1.2 0.8 0.7 1.5 1.4 0.7 0.7 1.3 1.4c0.3 0.4 0.5 0.6 0.5 0.6 0 0-14.6 2-20.8 10.4-2.7 3.7-2.7 7-1.9 9.5z"/>
		<path id="Layer" class="s2" d="m129.8 290c0 0-0.6-11.5-2.5-14"/>
		<path id="Layer" class="s2" d="m133.7 290.3c0 0 0.9-10.1-1.1-14.9"/>
		<path id="Layer" class="s2" d="m137.4 277.1q0.3 1.5 0.5 3.1 0.3 1.5 0.4 3 0.2 1.6 0.2 3.1 0 1.6 0 3.1"/>
		<path id="Layer" class="s13" d="m163.3 241.8c1.8 6.1 5.1 13.6 2.8 14.8-2.4 1.2-4.6 0.8-10.7-0.4-6.1-1.2-5.3-1-5.3-6.1 0-5.1 2.6-21.9 4.5-23.8 1.9-2 4.9 2 4.9 2 0 0 2 7.4 3.8 13.5z"/>
		<path id="Layer" class="s13" d="m167.3 143.2q0.4-0.1 0.7-0.1 0.3-0.1 0.6-0.1 0.3 0.1 0.6 0.1 0.3 0.1 0.6 0.2"/>
		<path id="Layer" class="s13" d="m165.1 144.3c-3.7 3-5.6 11-7.8 13.8q-0.2 0.2-0.5 0.5-0.2 0.3-0.5 0.6-0.2 0.2-0.5 0.5-0.2 0.3-0.5 0.5"/>
		<path id="Layer" class="s13" d="m152.9 158.9c0 0 3-1.6 3.8-7"/>
		<path id="Layer" class="s13" d="m164.5 186.3l-2.2 13.4c0 0 18.1 37.8 18.3 44.9 0.2 7.1-2 11.2-9.8 12-7.9 0.8-9.9-1-11.8-8.9-2-7.8-3.4-47.2-3.4-47.2 0 0-3.7-5.1-4.7-6.9q-0.3-0.6-0.5-1.2-0.3-0.7-0.4-1.3-0.2-0.6-0.3-1.3-0.1-0.7-0.2-1.3c0-0.6-1.4-17.2-1.4-17.2l14.2-0.2z"/>
		<path id="Layer" class="s13" d="m163.4 184.6l-7.3 1.1q-0.3 0.1-0.7 0-0.3 0-0.6-0.2-0.3-0.2-0.4-0.5-0.2-0.3-0.3-0.6l-0.4-1.8q0-0.4 0-0.7 0.1-0.3 0.3-0.6 0.2-0.3 0.5-0.5 0.2-0.2 0.6-0.2l7.2-1.1q0.4-0.1 0.7 0 0.3 0.1 0.6 0.2 0.3 0.2 0.5 0.5 0.2 0.3 0.2 0.6l0.4 1.8q0.1 0.4 0 0.7-0.1 0.3-0.2 0.6-0.2 0.3-0.5 0.5-0.3 0.2-0.6 0.2z"/>
		<path id="Layer" class="s13" d="m164.3 188.5l-5.3 0.7q-0.2 0.1-0.5 0-0.2 0-0.4-0.2-0.2-0.1-0.3-0.3-0.2-0.2-0.2-0.5l-0.3-1.3q0-0.2 0-0.5 0.1-0.2 0.2-0.4 0.2-0.2 0.4-0.3 0.2-0.2 0.4-0.2l5.3-0.8q0.2 0 0.5 0 0.2 0.1 0.4 0.2 0.2 0.2 0.4 0.4 0.1 0.2 0.1 0.4l0.3 1.3q0 0.3 0 0.5-0.1 0.3-0.2 0.5-0.1 0.2-0.3 0.3-0.3 0.1-0.5 0.2z"/>
		<path id="Layer" class="s13" d="m163.5 173.7l-7.7 1.1q-0.3 0.1-0.7 0-0.3 0-0.6-0.2-0.3-0.2-0.5-0.5-0.2-0.3-0.3-0.7l-0.4-1.9q0-0.3 0.1-0.7 0-0.3 0.2-0.6 0.2-0.3 0.5-0.5 0.3-0.2 0.7-0.3l7.6-1.1q0.4-0.1 0.7 0 0.4 0.1 0.7 0.3 0.3 0.2 0.4 0.5 0.2 0.3 0.3 0.6l0.4 1.9q0.1 0.4 0 0.7-0.1 0.4-0.3 0.7-0.2 0.3-0.5 0.4-0.3 0.2-0.6 0.3z"/>
		<path id="Layer" class="s13" d="m164.3 179.4l-7.7 1.1q-0.4 0.1-0.7 0-0.3 0-0.6-0.2-0.3-0.2-0.5-0.5-0.2-0.3-0.3-0.7l-0.4-1.9q0-0.3 0-0.7 0.1-0.3 0.3-0.6 0.2-0.3 0.5-0.5 0.3-0.2 0.6-0.3l7.7-1.1q0.4-0.1 0.7 0 0.3 0.1 0.6 0.3 0.3 0.2 0.5 0.5 0.2 0.3 0.3 0.6l0.4 1.9q0 0.4 0 0.7-0.1 0.4-0.3 0.7-0.2 0.3-0.5 0.5-0.3 0.2-0.6 0.2z"/>
		<path id="Layer" class="s14" d="m101.3 142.1c0 0-2.2-21.3-4.7-28.5-2.6-7.3 6.8-15.4 28.9-14.9 22.2 0.4 30.3 10.2 30.7 14.9 0.4 4.6-5.1 8.1-5.1 8.1l-2.2 6-19.5-4.7c0 0 0 5.1-1.7 7.2-1.7 2.1-11.5 5.5-11.5 5.5 0 0-2.2 7.7-5.6 11.5-3.4 3.9-8.5 3.4-8.9 0.9q-0.1-0.8-0.2-1.5-0.1-0.8-0.1-1.5-0.1-0.8-0.1-1.5 0-0.8 0-1.5z"/>
		<path id="Layer" class="s13" d="m107.6 144.8q0.6-0.6 1.2-1.1 0.6-0.6 1.1-1.2 0.6-0.6 1.1-1.2c1.7-2.1 0.5-4.3 0.5-8.1 0-3.9 10.2-3.9 11.9-4.7 1.7-0.9 0.4-7.2-2.1-9.4-2.6-2.1 0-1.7 5.5-3 5.5-1.3 24.2 5.6 24.2 5.6 0 0 0.9 7.6 0.9 11.4 0 3.9-3.8 11-3.8 12q-0.1 1.4-0.2 2.9-0.2 1.4-0.4 2.9-0.2 1.4-0.5 2.8-0.3 1.4-0.6 2.9c-1.7 6.8-12 19.5-15.4 21.2-3.4 1.7-5.9 0-10.6-2.5-4.7-2.6-17.9-20-17.9-20 0 0-2.5-0.9-4.7-5.1-2.1-4.3-3.8-12.8 3-12.8 6.9 0 5.6 8.5 5.6 8.5q0.6-0.5 1.2-1.1z"/>
		<path id="Layer" class="s12" d="m149.9 141.1c-1.1-1.7-3.7 0-3.7 0l-4.2 5.8c0 0 0.3 10.7-0.8 12.1-1.1 1.4-7 0.6-7 0.6"/>
		<path id="Layer" class="s12" d="m132.2 168.5l4-1.4"/>
		<path id="Layer" class="s15" d="m130.8 144.9c-0.4 1.5-1.4 2.6-2.3 2.3-0.9-0.2-1.3-1.6-0.9-3.1 0.4-1.5 1.4-2.6 2.3-2.3 0.9 0.2 1.3 1.6 0.9 3.1z"/>
		<path id="Layer" class="s15" d="m146.7 147.4c-0.4 1.5-1.4 2.5-2.3 2.3-0.9-0.3-1.3-1.7-0.9-3.2 0.4-1.5 1.5-2.5 2.4-2.3 0.8 0.2 1.2 1.7 0.8 3.2z"/>
		<path id="Layer" class="s12" d="m126.9 137.4c0 0 4.2-2.8 10.4 0.8"/>
		<path id="Layer" class="s13" d="m156.6 162.6l-0.9 29.7-15.5 1.1-4.6-29.4c14.5-3.7 21-1.4 21-1.4z"/>
	</g>
	<g id="freepik--device-3--inject-2">
		<path id="Layer" class="s13" d="m350.3 400.1l15 57.3q0.3 1 0.1 2-0.2 1-0.9 1.9-0.6 0.8-1.5 1.2-1 0.5-2 0.5h-19.1v-3.8h15.1q0.6 0 1.1-0.2 0.5-0.3 0.8-0.7 0.4-0.4 0.5-1 0.1-0.5 0-1.1l-12-50.6z"/>
		<path id="Layer" class="s16" d="m352.9 349.6l6.6 1.2-16.2 93.4-6.6-1.2z"/>
		<path id="Layer" class="s13" d="m258.9 460.4h61v2.6h-61z"/>
	</g>
	<g id="freepik--device-2--inject-2">
		<path id="Layer" class="s14" d="m283.7 290.4h119.5v3.4h-119.5z"/>
		<path id="Layer" class="s13" d="m361.2 290.4h42v3.4h-42z"/>
		<path id="Layer" class="s13" d="m362.6 290.4h-77.5l-7.6-51.6q-0.1-0.9 0.1-1.7 0.2-0.8 0.8-1.5 0.5-0.6 1.3-1 0.8-0.3 1.6-0.3h68.7q0.9 0.1 1.8 0.4 0.8 0.3 1.5 0.9 0.7 0.6 1.2 1.5 0.4 0.8 0.6 1.7z"/>
		<path id="Layer" class="s13" d="m361.1 290.4h-77.5l-7.6-51.6q-0.1-0.9 0.1-1.7 0.2-0.8 0.8-1.5 0.5-0.6 1.3-1 0.8-0.3 1.6-0.3h68.7q0.9 0 1.8 0.4 0.9 0.3 1.6 0.9 0.7 0.6 1.1 1.4 0.5 0.9 0.6 1.8z"/>
	</g>
	<g id="freepik--device-1--inject-2">
		<path id="Layer" class="s14" d="m242 293.8h-122.1v-3.5h122.1z"/>
		<path id="Layer" class="s11" d="m162.8 293.8h-42.8v-3.5h42.8z"/>
		<path id="Layer" class="s11" d="m169.1 237.6q0.1-1 0.6-1.8 0.5-0.8 1.2-1.4 0.7-0.7 1.6-1 0.8-0.4 1.8-0.4h70.2q0.8 0 1.6 0.3 0.8 0.4 1.4 1.1 0.6 0.6 0.8 1.5 0.2 0.8 0 1.7l-7.7 52.7h-79.2z"/>
		<path id="Layer" class="s11" d="m170.6 237.6q0.2-1 0.6-1.8 0.5-0.8 1.2-1.5 0.7-0.6 1.6-0.9 0.9-0.4 1.8-0.4h70.2q0.9 0 1.7 0.3 0.8 0.4 1.3 1.1 0.6 0.6 0.8 1.5 0.2 0.8 0.1 1.7l-7.8 52.7h-79.2z"/>
		<path id="Layer" class="s14" d="m204.8 260q0.2-1 0.7-1.9 0.5-0.9 1.3-1.6 0.8-0.7 1.7-1.1 1-0.4 2-0.4 1 0 1.9 0.4 0.8 0.3 1.5 1.1 0.6 0.7 0.8 1.6 0.3 1 0.1 1.9-0.2 1-0.7 1.9-0.5 0.9-1.3 1.6-0.7 0.7-1.7 1.1-1 0.4-2 0.4-1 0-1.8-0.4-0.9-0.4-1.5-1.1-0.6-0.7-0.9-1.6-0.2-1-0.1-1.9z"/>
	</g>
	<g id="freepik--table-3--inject-2">
		<path id="Layer" class="s2" d="m25 463h466.7"/>
	</g>
	<g id="freepik--table-2--inject-2">
		<path id="Layer" class="s13" d="m481.7 293.8h-212.1"/>
	</g>
	<g id="freepik--table-1--inject-2">
		<path id="Layer" class="s2" d="m257 293.8h-234.4"/>
	</g>
	<g id="freepik--character-3--inject-2">
		<path id="Layer" class="s14" d="m185.5 329.4c-1.5 3.3-18.2 16.4-22.5 15.6-4.4-0.7 1.8-7.4 1.8-7.4 0 0-22.4 7.4-30.6-2.8-8.2-10.3 14.6-12.6 14.6-12.6 0 0-12.6-4.1-12.8-9-0.3-4.9 13.3-0.3 13.3-0.3 0 0-10.5-17.2 0.8-25.4 11.3-8.2 24.7 6.7 24.7 5.9 0-0.7-4.7-15.4 4.3-10 9 5.4 10.8 22.6 10.8 22.6 5.9 10-2.8 20-4.4 23.4z"/>
		<path id="Layer" class="s14" d="m226.3 336.2c-8.8 2.2-17.2 18-21.6 22.4-4.4 4.4-20.6 1.7-20.6 1.7l-5.3-31.6c-1.3-7.9 1.3-23.3 21.1-27.7 19.8-4.4 33.8 13.2 33.8 13.2 0 0 9.2-1.3 15.8 1.3 6.6 2.7 8.4 7.5 4 14.5-4.4 7.1-12.7 7.5-12.7 7.5 0 0-5.8-3.5-14.6-1.3z"/>
		<path id="Layer" class="s2" d="m243.7 352.7c-0.5 3.9-3.4 9.5-6.1 9.1-2.7-0.4-4.5-3.9-4-7.8 0.5-4 3.4-4.5 6.1-4.1 2.7 0.3 4.5-1.2 4 2.8z"/>
		<path id="Layer" class="s13" d="m196.8 348.1c0 0 3.5 1.3 8.8-2.7 5.3-3.9 5.3-13.6 16.7-15.8 11.4-2.2 18.9 3.1 19.3 6.2 0.5 3-1.3 9.2-1.3 15.3 0 6.2 1.3 9.3 2.7 10.6 1.3 1.3 3 0.4 0.4 3.1q-0.9 0.8-1.9 1.5-0.9 0.8-1.9 1.5-1 0.7-2 1.4-1.1 0.7-2.1 1.3c-0.7 0.4-7.5 14-10.6 16.7-3 2.6-10.5 1.3-13.1 0-2.7-1.3-8.4-4.4-8.4-4.4l-3.5 12.3-21.1-17.1 5.3-17.6c0 0 10.5-2.7 12.7-12.3z"/>
		<path id="Layer" class="s14" d="m203.4 382.8l-2.6 7-3.1-13.4 5.7 6.4z"/>
		<path id="Layer" class="s15" d="m236.9 353.9c-0.2 1.7-1 3-2 2.9-0.9-0.1-1.5-1.5-1.3-3.2 0.1-1.7 1-3 1.9-2.9 0.9 0.1 1.5 1.5 1.4 3.2z"/>
		<path id="Layer" class="s2" d="m228.5 349.9l-30.1-2"/>
		<path id="Layer" class="s2" d="m238.4 354h2.5"/>
		<path id="Layer" class="s2" d="m231.8 343.2q0.8-0.4 1.6-0.6 0.9-0.1 1.8 0 0.9 0.1 1.7 0.4 0.9 0.4 1.5 1"/>
		<path id="Layer" class="s2" d="m231.8 375.6c0 0-3.4 0-5.7-3.9"/>
		<path id="Layer" class="s11" d="m203 406.5l4 56.8h-86.7c0 0 13.5-43.2 17.8-52.3 4.2-9 9.6-13 9.6-13 0 0 11-9.9 26-7.9 15 2 29.3 16.4 29.3 16.4z"/>
		<path id="Layer" class="s13" d="m199 362.6c0 0-2.6 4.4-6.6 0.4-4-4-7-17.6-0.9-18.9 6.2-1.3 7.9 7.5 7.9 7.5"/>
		<path id="Layer" class="s11" d="m195.1 404.8c-6.5-3.4-8-5.9-16.4-6.5-8.5-0.6-30.8 6.8-34.5 6.8-3.6 0-4.8 2.2-6.4 0.3-1.7-2-0.6-17.5 0.5-20.6 1.1-3.2 11-4.8 11-4.8 0 0 1.8-12.2 4-18.4 2.3-6.2 17.5 5.3 29.1 14.4 11.6 9 20 18.6 22.9 23.4 2.8 4.8-0.6 10.8-0.6 10.8 0 0-3.1-2-9.6-5.4z"/>
		<path id="Layer" class="s2" d="m198.9 399.9q0.6 0.5 1.2 1 0.5 0.4 1.1 0.9 0.5 0.5 1.1 1.1 0.5 0.5 1 1"/>
		<path id="Layer" class="s2" d="m156.1 385.7c6.5-1.3 14.3-2.1 19.8 0.5q2.6 1.2 5.2 2.5 2.5 1.4 5 2.8 2.5 1.5 5 3 2.4 1.6 4.8 3.2"/>
		<path id="Layer" class="s2" d="m144.6 389q1.2-0.4 2.4-0.9 1.2-0.4 2.4-0.7 1.3-0.4 2.5-0.7 1.3-0.4 2.5-0.7"/>
		<path id="Layer" class="s2" d="m153 380c0 0 7.1-2.8 16.7 0.3"/>
		<path id="Layer" class="s11" d="m163.8 408.8c2.2-4.8 9.5-15.6 20.8-9.9 11.4 5.6 14.2 19.2 19.2 35.8 5.1 16.7 9.9 28.6 9.9 28.6h-42l-10.5-42.1"/>
		<path id="Layer" class="s13" d="m240.7 463.2l29.2-17.5c0 0 15-6.2 18.2-6.2 3.3 0 10 5.8 16 8.8 6.6 3.2 7.7 4.3 5.1 5.4-2.5 1.1-5.4-0.7-8.3-1.8-3-1.1-11.3-5.1-11.3-5.1 0 0 5.3 4.3 9.7 7.4 4.5 3.2 9.6 4.3 5.6 5.4-4 1-7 0-11.2-2.8q-1-0.6-2-1.2-1-0.6-2-1.2-1-0.6-2-1.1-1.1-0.5-2.1-1c0 0-3 2.7-12 5.4-9 2.8-14.6 1.5-14.6 1.5l-4.7 4z"/>
		<path id="Layer" class="s14" d="m264.6 454.4q0.1-0.8 0.2-1.7 0.1-0.8 0.2-1.7 0.1-0.8 0.2-1.6c0.4-1.1 18.2 0 22.9 1.8 4.8 1.8 5.5 3.6 2.6 4-2.9 0.3-11.7 0-11.7 0 0 0-4.3 0.7-7.6 1.4q-0.9 0.2-1.7 0.2-0.9 0.1-1.8 0-0.8-0.1-1.7-0.2-0.8-0.2-1.7-0.5 0.1-0.8 0.1-1.7z"/>
		<path id="Layer" class="s13" d="m291.1 446.4c0 0 6.9 2.6 8.3 3.5 1.3 0.8 3.8 1.5 2.8 3-1.1 1.4-4.6 0.2-7-0.3q-0.7-0.1-1.3-0.3-0.7-0.2-1.4-0.5-0.7-0.2-1.4-0.5-0.6-0.3-1.3-0.6z"/>
		<path id="Layer" class="s13" d="m273.2 442.5c0 0 12.3 0.7 15.1 1.5 2.8 0.9 5 6.7 5.4 8.5 0.4 1.7 2 3.8 0.7 4.1-1.3 0.2-6.1-5.2-8-6.3-2-1.1-9.8-4.8-12.6-5.8-2.8-1.1-2.1-2.2-0.6-2z"/>
		<path id="Layer" class="s13" d="m237.1 461.1c0-0.1 28.2-20.1 31.2-20.1 3 0 16.6 6 19.6 7.6 3 1.5 6.8 9.8 6.8 9.8 0 0-0.8 1.8-3.4 0.3-2.7-1.5-5.7-6.3-5.7-6.3l-15-0.6c0 0-3.8 3.5-6 4.3q-1 0.2-1.9 0.4-0.9 0.2-1.9 0.4-0.9 0.1-1.9 0.3-0.9 0.1-1.9 0.2l-4.8 4.4z"/>
		<path id="Layer" class="s11" d="m250.5 451.4l6.5 11.9h-28.1l21.6-11.9z"/>
		<path id="Layer" class="s2" d="m238.4 354c0 0-2.3 9.7-6.8 6.6-4.5-3.1-3.4-10.4-2.3-12.4 1.2-2 9.6 1.1 9.6 1.1"/>
	</g>
	<g id="freepik--Clock--inject-2">
		<path id="Layer" class="s14" d="m264 155c-20.5 0-37-16.5-37-37 0-20.5 16.5-37 37-37 20.5 0 37 16.5 37 37 0 20.5-16.5 37-37 37z"/>
		<path id="Layer" class="s13" d="m264 151c-18.2 0-33-14.8-33-33 0-18.2 14.8-33 33-33 18.2 0 33 14.8 33 33 0 18.2-14.8 33-33 33z"/>
		<path id="Layer" class="s17" d="m255.2 127.3l8.8-9.3 23 16.8"/>
	</g>
</svg>