<svg version="1.2" xmlns="http://www.w3.org/2000/svg" viewBox="0 0 500 500" width="500" height="500"><style>.a{fill:#e0b524}.b{opacity:.7;fill:#fff}.c{fill:none;stroke:#263238;stroke-linecap:round;stroke-linejoin:round}.d{fill:#263238}.e{fill:#92e3a9;stroke:#263238;stroke-linecap:round;stroke-linejoin:round}.f{fill:#fff;stroke:#263238;stroke-linecap:round;stroke-linejoin:round}.g{fill:#263238;stroke:#263238;stroke-linecap:round;stroke-linejoin:round}.h{fill:none;stroke:#263238;stroke-linecap:round;stroke-linejoin:round;stroke-width:2}.i{fill:none;stroke:#263238;stroke-linecap:round;stroke-linejoin:round;stroke-width:1}.j{fill:none;stroke:#fff;stroke-linecap:round;stroke-linejoin:round}</style><path class="a" d="m254.2 389.5c-65.3 13.3-132.7 60.1-180.2 31.1-47.5-29-69.6-94.4-46.9-151.9 22.8-57.4 65.4-68.8 97.2-86.5 28.2-15.8 41.2-54.1 64-76.5 63.9-62.7 156.3-53.1 222.3-0.6 74.8 59.6 71.5 186.4 71.5 186.4-9.8 157.5-162.5 84.7-227.9 98z"/><path class="b" d="m254.2 389.5c-65.3 13.3-132.7 60.1-180.2 31.1-47.5-29-69.6-94.4-46.9-151.9 22.8-57.4 65.4-68.8 97.2-86.5 28.2-15.8 41.2-54.1 64-76.5 63.9-62.7 156.3-53.1 222.3-0.6 74.8 59.6 71.5 186.4 71.5 186.4-9.8 157.5-162.5 84.7-227.9 98z"/><path class="c" d="m38 451.1h422.1"/><path class="d" d="m51.3 374.7q-0.2-0.8-0.1-1.6 0.1-0.9 0.6-1.6 0.4-0.7 1.1-1.2 0.7-0.4 1.6-0.6c3.3-0.4 7.4 4 8.7 6.7 0.1 0.2 1.3 4.1 1.3 4.1 0 0-5.8 0.1-8.2-0.9-2.1-0.9-4.5-2.6-5-4.9z"/><path class="d" d="m52.1 393.2q-0.4-0.7-0.5-1.5-0.1-0.9 0.2-1.7 0.2-0.8 0.8-1.4 0.5-0.7 1.3-1c3.1-1.3 8.1 1.9 10.1 4.1 0.2 0.2 1.7 2.5 2.3 3.3v-0.1q-0.3-1.1-0.6-2.2-0.2-1.2-0.4-2.3-0.2-1.1-0.3-2.3-0.2-1.1-0.3-2.3-0.1-1-0.1-2-0.1-1.1-0.1-2.1 0-1 0-2 0-1.1 0-2.1c0.1-2.5 0.3-4.9 0.5-6.9 0.1-1.1 0.2-2.1 0.4-3.1-0.1 0.1-1.3-3.9-1.3-4.1-0.5-3 0.3-9 3.3-10.5q0.7-0.4 1.6-0.4 0.8 0 1.6 0.3 0.8 0.3 1.4 0.9 0.6 0.6 0.9 1.4c0.8 2.2-0.1 4.9-1.3 6.9-1.1 1.9-5 4.7-6 5.3q-0.1 1.5-0.3 3.2c-0.1 2.1-0.3 4.4-0.3 7 0 0.6 0 1.4 0 2.1 0.2-1.3 0.6-2.9 0.6-3 0.9-2.9 4.4-7.9 7.7-7.9q0.9 0.1 1.6 0.4 0.8 0.4 1.3 1 0.6 0.7 0.8 1.5 0.2 0.8 0.1 1.6c-0.2 2.4-2.2 4.3-4.2 5.6-2 1.2-6.9 1.8-7.9 2q0.1 2.3 0.3 4.8 0.2 1.1 0.3 2.2 0.2 1.2 0.4 2.3 0.2 1.1 0.5 2.2 0.2 1.1 0.5 2.2c0.1 0.2 0.2 0.3 0.2 0.5 0-0.6 0.4-3.9 0.4-4.2 0.6-2.9 3.5-8.2 6.8-8.6q0.8 0 1.6 0.2 0.8 0.3 1.4 0.9 0.6 0.6 1 1.4 0.3 0.7 0.3 1.6c0 2.4-1.9 4.6-3.7 6-2 1.6-7.5 2.8-7.7 2.9q0.3 1.1 0.7 2.1 0.4 1.1 0.8 2.1 0.4 1.1 0.8 2.1 0.5 1.1 0.9 2.1c1 2.1 2 4.1 3 6.1 0.1-0.8 0.3-3.9 0.4-4.1 0.6-3 3.5-8.3 6.8-8.6q0.9-0.1 1.6 0.2 0.8 0.3 1.5 0.8 0.6 0.6 0.9 1.4 0.3 0.8 0.3 1.6c0 2.4-1.9 4.7-3.6 6-2 1.5-7.3 2.8-7.8 2.9l1.4 2.7c1.6 3 3.2 6 4.7 9 0.5 1 1 2.1 1.5 3.1 0.1-1.2 0.3-3.3 0.3-3.5 0.6-2.9 3.5-8.2 6.8-8.6q0.9-0.1 1.7 0.2 0.8 0.3 1.4 0.9 0.6 0.5 0.9 1.3 0.3 0.8 0.3 1.6c0 2.4-1.8 4.6-3.6 6-1.8 1.4-6.2 2.5-7.5 2.8q1.2 2.6 2.2 5.2c0.3 0.8 0.5 1.6 0.8 2.3q0.3 1.1 0.7 2.2c0.3 1.5 0.7 3 1.1 4.4q0.2 1.1 0.5 2.1c-0.1-1.2-0.2-3.1-0.2-3.3 0.1-3 2.2-8.7 5.4-9.5q0.8-0.3 1.7-0.1 0.8 0.2 1.5 0.6 0.7 0.5 1.2 1.3 0.4 0.7 0.5 1.5 0 0.1 0.1 0.3 0 0.1 0 0.2 0 0.1 0 0.2 0 0.1 0 0.2 0.5 0.9 0.9 1.8 0.3 0.9 0.6 1.8 0.3 1 0.4 2 0.1 0.9 0.2 1.9c0 0.2-0.4 2.5-0.5 3.6q0.5-1.3 1-2.7c0.6-1.3 1.1-2.8 1.6-4.2q0.3-1 0.7-2.2c0.2-0.7 0.4-1.4 0.6-2.2 0.3-1.1 0.5-2.3 0.8-3.4-1.4-0.5-5.4-1.8-7.1-3.3-1.7-1.5-3.4-3.8-3.2-6.2q0-0.8 0.4-1.6 0.4-0.7 1-1.3 0.7-0.5 1.5-0.8 0.8-0.2 1.6-0.1c3.3 0.6 5.8 6.1 6.2 9.1 0 0.1 0 0.7 0 1.5 0.2-1.2 0.4-2.3 0.6-3.4 0.4-3.3 0.8-6.7 1.2-10q0.2-1.1 0.3-2.1c-1.2-0.4-5.6-1.9-7.3-3.4-1.7-1.5-3.4-3.8-3.2-6.2q0.1-0.8 0.4-1.6 0.4-0.7 1.1-1.3 0.6-0.5 1.4-0.7 0.8-0.3 1.7-0.1c3.3 0.6 5.8 6 6.2 9 0 0.1 0 0.9 0 1.8q0.3-2.8 0.8-5.5 0.2-1.1 0.4-2.3 0.2-1.1 0.5-2.3 0.3-1.1 0.6-2.2 0.3-1.2 0.7-2.3c-0.5-0.1-5.7-1.7-7.6-3.4-1.6-1.5-3.3-3.8-3.2-6.2q0.1-0.8 0.5-1.6 0.4-0.7 1-1.3 0.7-0.5 1.5-0.7 0.8-0.3 1.6-0.1c3.3 0.6 5.8 6 6.2 9 0.1 0.2 0.1 3 0.1 4v-0.1q0.3-1.1 0.7-2.2 0.5-1.1 0.9-2.1 0.5-1.1 1-2.1 0.5-1 1.1-2 0.5-0.9 1-1.8 0.5-0.9 1.1-1.8 0.5-0.9 1.1-1.7 0.5-0.9 1.1-1.7c1.5-2.1 2.9-3.9 4.2-5.6q1.1-1.2 2-2.3c-0.1 0 1.1-3.9 1.2-4.1 1.2-2.8 5.2-7.4 8.5-7q0.9 0.1 1.6 0.5 0.7 0.5 1.2 1.2 0.4 0.7 0.6 1.5 0.1 0.8-0.1 1.6c-0.4 2.4-2.7 4.1-4.8 5.1-2.1 1-6.8 1.1-8 1.1q-0.9 1.2-2 2.5c-1.2 1.6-2.6 3.5-4 5.6-0.4 0.6-0.8 1.2-1.2 1.8 0.9-0.9 2.1-2 2.2-2.1 2.3-1.9 7.9-4.2 10.7-2.3q0.7 0.5 1.1 1.2 0.5 0.7 0.6 1.6 0.1 0.8-0.2 1.6-0.2 0.8-0.8 1.5c-1.5 1.8-4.3 2.3-6.6 2.2-2.3-0.1-6.7-2.2-7.6-2.7-0.9 1.4-1.7 2.7-2.4 4.2q-0.5 1-1 2.1-0.5 1-1 2-0.4 1.1-0.8 2.2-0.4 1-0.7 2.1-0.1 0.3-0.2 0.5c0.4-0.5 2.5-3.1 2.6-3.3 2.2-2.1 7.5-4.9 10.5-3.4q0.7 0.4 1.2 1.1 0.5 0.7 0.7 1.5 0.2 0.8 0.1 1.6-0.2 0.9-0.7 1.6c-1.3 2-4.1 2.8-6.3 3-2.6 0.2-7.9-1.8-8.1-1.9q-0.3 1.1-0.6 2.2-0.2 1.1-0.5 2.2-0.2 1.1-0.4 2.2-0.2 1.1-0.4 2.2c-0.3 2.3-0.6 4.5-0.8 6.8 0.4-0.7 2.4-3.1 2.5-3.3 2.1-2.1 7.5-4.9 10.5-3.4q0.7 0.4 1.2 1.1 0.5 0.7 0.7 1.5 0.2 0.8 0 1.6-0.1 0.9-0.6 1.6c-1.3 2-4.1 2.8-6.3 3-2.5 0.1-7.6-1.7-8-1.9-0.1 1-0.2 2.1-0.3 3.1-0.3 3.3-0.6 6.7-1 10q-0.2 1.8-0.5 3.5c0.7-1 2-2.7 2.2-2.8 2.1-2.1 7.4-5 10.4-3.4q0.7 0.4 1.3 1.1 0.5 0.6 0.6 1.4 0.2 0.9 0.1 1.7-0.2 0.8-0.7 1.5c-1.3 2-4 2.9-6.3 3-2.2 0.2-6.5-1.3-7.7-1.7q-0.5 2.8-1.1 5.5c-0.2 0.8-0.4 1.6-0.6 2.3l-0.7 2.2c-0.4 1.5-0.9 2.9-1.4 4.3q-0.4 1-0.8 2c0.6-1 1.6-2.7 1.7-2.8 1.7-2.5 6.6-6.1 9.7-5q0.8 0.2 1.4 0.8 0.6 0.6 1 1.4 0.3 0.8 0.2 1.6 0 0.9-0.4 1.6c-0.9 2.2-3.6 3.4-5.7 3.9-2.4 0.6-7.6-0.5-8.2-0.6-0.7 1.7-1.3 3.3-1.9 4.8l-0.5 1.2h-2.2q0.4-0.9 0.9-2 0.9-2 1.7-4.2c-0.5-0.3-4.9-2.5-6.6-4.3q-0.6 0.3-1.2 0.6-0.5 0.3-1.1 0.5-0.6 0.3-1.1 0.5-0.6 0.3-1.2 0.5c0.4 1.8 0.7 3.5 1.1 5q0.3 1.8 0.6 3.5h-2.1q-0.2-1.5-0.5-3.1-0.4-2.2-0.9-4.5c-0.6 0.1-5.8 0.7-8.2 0-2.1-0.6-4.6-2.1-5.4-4.3q-0.4-0.8-0.3-1.6 0-0.9 0.4-1.6 0.3-0.8 1-1.3 0.6-0.5 1.4-0.8c3.3-0.8 7.8 3.1 9.4 5.7 0.1 0.1 1.1 2.2 1.6 3.2-0.2-0.9-0.4-1.8-0.6-2.8-0.3-1.4-0.6-2.9-1-4.3l-0.6-2.3c-0.2-0.7-0.5-1.4-0.7-2.2-0.4-1.1-0.8-2.1-1.3-3.3-1.4 0.5-5.5 1.5-7.7 1.2-2.2-0.3-4.9-1.3-6.1-3.4q-0.4-0.7-0.5-1.6-0.1-0.8 0.2-1.6 0.2-0.8 0.8-1.4 0.5-0.7 1.3-1c3.1-1.3 8.1 1.9 10.1 4.1 0.1 0.1 0.5 0.6 0.9 1.2-0.4-1-0.9-2.1-1.4-3.1-1.4-3-3-6-4.5-9q-0.5-1-0.9-1.9c-1.2 0.3-5.7 1.5-7.9 1.2-2.3-0.3-5-1.3-6.1-3.4q-0.5-0.7-0.5-1.6-0.1-0.8 0.1-1.6 0.3-0.8 0.8-1.4 0.6-0.7 1.3-1c3.1-1.3 8.2 1.9 10.2 4.1 0 0.1 0.5 0.7 1 1.4q-1.3-2.5-2.3-5-0.5-1-0.9-2.1-0.5-1.1-0.9-2.2-0.4-1.1-0.8-2.2-0.3-1.1-0.6-2.3c-0.5 0.1-5.7 1.7-8.2 1.3-2.2-0.3-4.9-1.3-6.2-3.4z"/><path class="d" d="m109.3 375.5c-1.2-1.9-2.2-4.6-1.4-6.9q0.2-0.8 0.8-1.4 0.6-0.6 1.3-0.9 0.8-0.4 1.7-0.4 0.8 0 1.6 0.4c3 1.4 3.9 7.3 3.5 10.3 0 0.3-1.1 4.2-1.1 4.2 0 0-4.9-3.1-6.4-5.3z"/><path class="d" d="m372.7 374.7q-0.3-0.8-0.1-1.6 0.1-0.9 0.5-1.6 0.5-0.7 1.2-1.2 0.7-0.4 1.5-0.6c3.4-0.4 7.4 4 8.7 6.7 0.2 0.2 1.4 4.1 1.4 4.1 0 0-5.9 0.1-8.3-0.9-2-0.9-4.4-2.6-4.9-4.9z"/><path class="d" d="m373.8 393.1q-0.5-0.7-0.6-1.5-0.1-0.9 0.2-1.7 0.2-0.8 0.8-1.4 0.5-0.6 1.3-1c3.1-1.3 8.2 1.9 10.2 4.2 0.1 0.1 1.7 2.4 2.2 3.2v-0.1q-0.3-1.1-0.5-2.2-0.3-1.2-0.5-2.3-0.2-1.1-0.3-2.3-0.1-1.1-0.2-2.3-0.1-1-0.2-2 0-1-0.1-2.1 0-1 0-2 0-1.1 0-2.1c0.1-2.5 0.3-4.8 0.5-6.9 0.1-1.1 0.3-2.1 0.4-3.1h-0.1c0 0.1-1.2-3.8-1.2-4.1-0.5-2.9 0.3-8.9 3.3-10.5q0.7-0.3 1.6-0.4 0.8 0 1.6 0.3 0.8 0.3 1.3 1 0.6 0.6 0.9 1.4c0.9 2.2-0.1 4.9-1.2 6.8-1.2 2-5 4.7-6 5.4q-0.2 1.4-0.4 3.2c-0.1 2-0.3 4.4-0.3 6.9 0 0.7 0 1.4 0 2.1 0.3-1.2 0.6-2.9 0.6-3 1-2.8 4.4-7.8 7.8-7.8q0.8 0 1.6 0.4 0.7 0.3 1.3 1 0.5 0.6 0.8 1.4 0.2 0.8 0.1 1.7c-0.3 2.3-2.3 4.3-4.3 5.5-2 1.2-6.8 1.9-7.8 2 0 1.6 0.1 3.2 0.3 4.8q0.1 1.2 0.3 2.3 0.1 1.1 0.3 2.2 0.3 1.1 0.5 2.2 0.3 1.1 0.6 2.2 0.1 0.3 0.2 0.5c0-0.6 0.3-3.9 0.3-4.1 0.6-3 3.5-8.3 6.8-8.6q0.9-0.1 1.7 0.2 0.8 0.3 1.4 0.8 0.6 0.6 0.9 1.4 0.3 0.8 0.3 1.6c0 2.4-1.8 4.7-3.6 6-2 1.6-7.6 2.9-7.8 2.9q0.4 1.1 0.7 2.2 0.4 1 0.8 2.1 0.4 1 0.9 2.1 0.4 1 0.9 2.1c0.9 2 1.9 4 3 6 0-0.8 0.3-3.9 0.3-4.1 0.6-2.9 3.5-8.2 6.9-8.6q0.8-0.1 1.6 0.2 0.8 0.3 1.4 0.9 0.6 0.6 0.9 1.3 0.4 0.8 0.4 1.7c0 2.4-1.9 4.6-3.7 6-2 1.5-7.3 2.7-7.7 2.8 0.4 1 0.9 1.9 1.4 2.8 1.6 3 3.2 6 4.7 9 0.5 1 1 2.1 1.5 3.1 0.1-1.2 0.3-3.3 0.3-3.5 0.6-2.9 3.5-8.3 6.8-8.6q0.9-0.1 1.6 0.2 0.8 0.3 1.5 0.9 0.6 0.5 0.9 1.3 0.3 0.8 0.3 1.6c0 2.4-1.9 4.6-3.6 6-1.8 1.4-6.2 2.5-7.5 2.8q1.2 2.6 2.2 5.2c0.2 0.8 0.5 1.6 0.7 2.3q0.4 1.1 0.7 2.2c0.4 1.5 0.8 3 1.2 4.4q0.2 1.1 0.4 2.1c-0.1-1.2-0.2-3.1-0.2-3.3 0.2-3 2.2-8.7 5.5-9.6q0.8-0.1 1.6 0 0.8 0.2 1.5 0.6 0.7 0.5 1.2 1.2 0.4 0.8 0.5 1.6 0 0.1 0.1 0.2 0 0.1 0 0.2 0 0.1 0 0.2 0 0.2 0 0.3 0.5 0.8 0.9 1.7 0.3 0.9 0.6 1.9 0.3 0.9 0.4 1.9 0.1 1 0.2 2c0 0.2-0.4 2.4-0.5 3.6q0.5-1.4 1-2.7c0.6-1.4 1.1-2.8 1.6-4.2 0.2-0.7 0.4-1.5 0.7-2.2 0.2-0.7 0.4-1.5 0.6-2.2 0.3-1.1 0.5-2.3 0.8-3.5-1.4-0.4-5.4-1.8-7.1-3.2-1.7-1.5-3.4-3.9-3.2-6.2q0-0.9 0.4-1.6 0.4-0.8 1.1-1.3 0.6-0.6 1.4-0.8 0.8-0.2 1.7-0.1c3.3 0.6 5.8 6.1 6.1 9.1 0 0.1 0 0.7 0 1.5q0.4-1.7 0.6-3.4c0.5-3.3 0.9-6.7 1.3-10q0.1-1.1 0.2-2.1c-1.1-0.4-5.6-1.9-7.3-3.4-1.6-1.5-3.3-3.8-3.1-6.2q0-0.8 0.4-1.6 0.4-0.7 1-1.3 0.7-0.5 1.5-0.7 0.8-0.3 1.6-0.1c3.3 0.6 5.8 6 6.2 9 0 0.1 0 0.9 0 1.8q0.4-2.8 0.8-5.5 0.2-1.1 0.5-2.3 0.2-1.1 0.5-2.3 0.2-1.1 0.6-2.2 0.3-1.2 0.6-2.3c-0.4-0.1-5.6-1.7-7.5-3.4-1.7-1.5-3.4-3.8-3.2-6.2q0.1-0.8 0.4-1.6 0.4-0.7 1.1-1.3 0.6-0.5 1.4-0.7 0.8-0.3 1.7-0.1c3.3 0.6 5.8 6 6.2 9 0 0.2 0 3 0 4q0 0 0-0.1 0 0 0 0 0 0 0 0 0 0 0 0 0.4-1.1 0.8-2.2 0.4-1.1 0.9-2.1 0.5-1.1 1-2.1 0.5-1 1-2 0.5-0.9 1.1-1.8 0.5-0.9 1-1.8 0.6-0.9 1.1-1.7 0.6-0.9 1.2-1.7c1.4-2.1 2.9-3.9 4.2-5.6q1.1-1.2 2-2.3h-0.3c0 0 1.2-3.9 1.3-4.1 1.2-2.8 5.2-7.4 8.5-7q0.8 0.1 1.5 0.5 0.7 0.5 1.2 1.2 0.5 0.7 0.6 1.5 0.2 0.8 0 1.6c-0.5 2.4-2.7 4.1-4.8 5.1-2.1 1-6.8 1.1-8 1.1q-0.9 1.2-2 2.5c-1.3 1.6-2.7 3.5-4.1 5.6-0.4 0.6-0.7 1.2-1.1 1.8 0.8-0.9 2-2 2.1-2.1 2.4-1.9 8-4.2 10.8-2.3q0.7 0.5 1.1 1.2 0.4 0.7 0.5 1.6 0.1 0.8-0.1 1.6-0.3 0.8-0.8 1.5c-1.5 1.8-4.3 2.3-6.6 2.2-2.3-0.1-6.7-2.2-7.7-2.7-0.8 1.4-1.6 2.7-2.4 4.2q-0.5 1-1 2.1-0.5 1-0.9 2-0.4 1.1-0.8 2.2-0.4 1-0.8 2.1c0 0.2-0.1 0.4-0.1 0.5 0.4-0.5 2.4-3.1 2.6-3.3 2.1-2.1 7.4-4.9 10.4-3.4q0.8 0.4 1.3 1.1 0.5 0.7 0.7 1.5 0.2 0.8 0 1.6-0.1 0.9-0.6 1.6c-1.3 2-4.1 2.8-6.3 3-2.6 0.2-7.9-1.8-8.1-1.9q-0.3 1.1-0.6 2.2-0.3 1.1-0.5 2.2-0.3 1.1-0.5 2.2-0.2 1.1-0.3 2.2-0.5 3.4-0.9 6.8c0.5-0.7 2.4-3.1 2.6-3.3 2.1-2.1 7.4-4.9 10.4-3.4q0.8 0.4 1.3 1.1 0.5 0.7 0.7 1.5 0.1 0.8 0 1.6-0.2 0.9-0.6 1.6c-1.3 2-4.1 2.8-6.3 3-2.5 0.1-7.6-1.7-8-1.9-0.2 1-0.3 2.1-0.4 3.1-0.2 3.3-0.6 6.7-1 10q-0.2 1.8-0.5 3.5c0.8-1 2.1-2.7 2.2-2.8 2.2-2.1 7.5-5 10.5-3.4q0.7 0.4 1.2 1.1 0.5 0.6 0.7 1.4 0.2 0.9 0 1.7-0.1 0.8-0.6 1.5c-1.3 2-4.1 2.9-6.3 3-2.2 0.2-6.6-1.3-7.8-1.7q-0.4 2.8-1.1 5.5c-0.2 0.8-0.3 1.6-0.5 2.3q-0.4 1.1-0.7 2.2c-0.5 1.5-1 2.9-1.5 4.3q-0.4 1-0.7 2c0.6-1 1.5-2.7 1.6-2.8 1.8-2.5 6.6-6.1 9.8-5q0.8 0.2 1.4 0.8 0.6 0.6 0.9 1.4 0.3 0.8 0.3 1.6 0 0.9-0.4 1.6c-1 2.2-3.6 3.4-5.8 3.9-2.4 0.6-7.5-0.5-8.2-0.6-0.6 1.7-1.2 3.3-1.8 4.8l-0.6 1.2h-2.2q0.5-0.9 0.9-2 0.9-2 1.8-4.2c-0.6-0.3-5-2.5-6.7-4.3q-0.5 0.3-1.1 0.6-0.6 0.3-1.1 0.5-0.6 0.3-1.2 0.5-0.6 0.3-1.1 0.5c0.3 1.8 0.7 3.5 1 5q0.4 1.8 0.7 3.5h-2.1q-0.2-1.5-0.5-3.1-0.4-2.2-0.9-4.5c-0.6 0.1-5.8 0.7-8.2 0-2.1-0.7-4.7-2.1-5.5-4.3q-0.3-0.8-0.3-1.6 0.1-0.9 0.4-1.6 0.4-0.8 1-1.3 0.7-0.6 1.5-0.8c3.2-0.8 7.8 3.1 9.4 5.7 0.1 0.1 1.1 2.2 1.6 3.2-0.2-0.9-0.4-1.8-0.6-2.8-0.3-1.4-0.7-2.9-1-4.3q-0.3-1.1-0.6-2.3c-0.2-0.7-0.5-1.4-0.8-2.2-0.3-1.1-0.8-2.2-1.2-3.3-1.4 0.4-5.5 1.5-7.7 1.2-2.2-0.3-5-1.3-6.1-3.4q-0.4-0.7-0.5-1.6-0.1-0.8 0.1-1.6 0.3-0.8 0.8-1.4 0.6-0.7 1.3-1c3.1-1.3 8.2 1.9 10.2 4.1l0.9 1.2q-0.7-1.5-1.4-3.1c-1.5-3-3-6-4.5-9q-0.5-1-1-1.9c-1.1 0.3-5.7 1.5-7.9 1.2-2.2-0.3-4.9-1.3-6.1-3.4q-0.4-0.7-0.5-1.6-0.1-0.8 0.2-1.6 0.2-0.8 0.8-1.4 0.5-0.7 1.3-1c3.1-1.3 8.1 1.9 10.1 4.1 0.1 0.1 0.6 0.7 1 1.4q-1.2-2.5-2.3-5-0.4-1-0.9-2.1-0.4-1.1-0.8-2.2-0.4-1.1-0.8-2.2-0.3-1.1-0.7-2.3c-0.4 0.1-5.6 1.7-8.1 1.3-2.2-0.3-5-1.3-5.9-3.5z"/><path class="d" d="m430.7 375.5c-1.2-1.9-2.2-4.6-1.4-6.9q0.2-0.8 0.8-1.4 0.6-0.6 1.3-0.9 0.8-0.4 1.6-0.4 0.9 0 1.6 0.4c3.1 1.4 4 7.3 3.6 10.3 0 0.3-1 4.2-1.1 4.2 0 0-5-3.1-6.4-5.3z"/><path fill-rule="evenodd" class="e" d="m431 182.9c4.3 1.8 8.2 4.4 11.4 7.7 3.3 3.2 5.8 7.1 7.6 11.4 1.8 4.3 2.7 8.9 2.7 13.5q0 0.6 0 1.3c0 0.2 0 0.5 0 0.7 0 0.3 0 0.4 0 0.7 0 0.3-0.1 0.5-0.1 0.8l-0.1 0.6q0 0.5-0.1 1c0 0.3-0.1 0.7-0.2 1q0 0.4-0.1 0.8l-0.1 0.3-0.2 0.8q-0.1 0.6-0.2 1-0.4 1.5-0.9 2.8c0 0.1-0.1 0.3-0.1 0.4q-0.3 0.7-0.6 1.5l-0.4 0.9-0.4 0.9q-0.3 0.7-0.7 1.4-0.4 0.6-0.8 1.3 0 0 0 0 0 0 0 0.1 0 0 0 0 0 0 0 0l-0.9 1.3q-0.4 0.6-0.9 1.3-0.1 0.1-0.1 0.2c-0.3 0.3-0.5 0.6-0.9 1q-0.4 0.6-1 1.2-0.5 0.6-1 1.2-0.6 0.6-1.2 1.1-0.5 0.6-1.1 1.1-0.6 0.5-1.3 1-1.2 0.9-2.5 1.8-0.7 0.4-1.4 0.8c-0.5 0.3-0.9 0.6-1.4 0.8q-0.8 0.4-1.6 0.8l-1 0.5-0.3 0.1c-9.7 4.1-20.8 3.6-30.2-1.4-9.3-5-16-13.9-18-24.3-2.1-10.3 0.6-21.1 7.3-29.3 6.7-8.2 16.8-12.9 27.4-12.9 4.6 0 9.2 1 13.4 2.8zm-5.4 51.8q1.7-0.7 3.3-1.7 1.6-1.1 3-2.4 1.4-1.3 2.5-2.8 1.1-1.5 2-3.2 0.5-1.1 0.9-2.2 0.4-1.1 0.6-2.3 0.3-1.1 0.4-2.3 0.2-1.2 0.2-2.4c0-8.4-5.1-16-12.9-19.3-7.8-3.2-16.8-1.4-22.8 4.6-6 5.9-7.8 14.9-4.5 22.7 3.2 7.8 10.8 12.9 19.3 12.9q1 0 2-0.1 1-0.1 2.1-0.3 1-0.2 1.9-0.5 1-0.3 2-0.7z"/><path class="f" d="m449.3 230.9q-0.3 0.7-0.7 1.4-0.4 0.6-0.8 1.3 0 0 0 0 0 0.1 0 0.1 0 0 0 0 0 0 0 0l-0.8 1.3q-0.5 0.7-0.9 1.3-0.1 0.1-0.2 0.2-0.4 0.6-0.8 1c-0.3 0.3-0.7 0.8-1 1.2q-0.6 0.6-1.1 1.2-0.6 0.6-1.2 1.1-0.5 0.6-1.1 1.1-0.6 0.5-1.3 1-1.2 1-2.5 1.8-0.7 0.5-1.4 0.9-0.7 0.3-1.4 0.7c-0.9 0.5-1.9 1-2.9 1.4l-5.5-13.3q1.7-0.7 3.3-1.8 1.6-1 3-2.3 1.4-1.3 2.5-2.8 1.1-1.5 1.9-3.2z"/><path class="g" d="m452.9 215.4q0 0.7 0 1.3 0 0.4 0 0.8c0 0.3 0 0.4 0 0.6 0 0.3 0 0.6-0.1 0.8l-0.1 0.6q0 0.5-0.1 1-0.1 0.6-0.1 1c-0.1 0.3-0.2 0.6-0.2 0.9l-0.1 0.3-0.2 0.8q-0.1 0.5-0.2 1-0.4 1.4-0.9 2.8c0 0.1 0 0.2-0.1 0.3q-0.3 0.8-0.6 1.5l-0.4 0.9-0.4 0.9-13-6.3q0.5-1 0.9-2.2 0.4-1.1 0.7-2.2 0.3-1.2 0.4-2.4 0.1-1.1 0.1-2.3c0-2.8-0.5-5.5-1.6-8-1-2.5-2.6-4.8-4.5-6.8-1.9-1.9-4.2-3.5-6.8-4.5-2.5-1.1-5.2-1.6-8-1.6v-14.5c4.7 0 9.2 0.9 13.5 2.7 4.3 1.8 8.2 4.4 11.5 7.7 3.2 3.3 5.8 7.2 7.6 11.4 1.8 4.3 2.7 8.9 2.7 13.5z"/><path class="c" d="m426.1 265.6h17.3"/><path class="c" d="m426.1 270.6h17.3"/><path class="c" d="m443.4 275.6h-17.3"/><path class="c" d="m354.5 205.7h17.3"/><path class="c" d="m354.5 210.7h17.3"/><path class="c" d="m371.8 215.7h-17.3"/><path class="c" d="m437.8 237.8l11.2 10.5v28"/><path class="c" d="m391.4 205.7h-14.9"/><path class="e" d="m384.7 116.9h11.3v33.8h-11.3z"/><path class="g" d="m400.8 105.7h11.2v45h-11.2z"/><path class="e" d="m416.8 92.8h11.3v57.9h-11.3z"/><path class="g" d="m432.9 83.7h11.3l-0.1 67h-11.2z"/><path class="h" d="m385.2 113.2l43.8-41"/><path class="d" d="m431.9 78.1l-8.6-9.2 12.3-2.8-3.7 12z"/><path class="e" d="m141.9 89.7v66.5h-88.3v-66.5h11.1v2.3c0 0.4 0.2 0.8 0.4 1.1 0.3 0.2 0.7 0.4 1.1 0.4 0.4 0 0.8-0.2 1.1-0.4 0.3-0.3 0.4-0.7 0.4-1.1v-2.3h12.8v2.3c0 0.4 0.2 0.8 0.4 1.1 0.3 0.2 0.7 0.4 1.1 0.4 0.4 0 0.8-0.2 1-0.4 0.3-0.3 0.5-0.7 0.5-1.1v-2.3h12.8v2.3c0 0.4 0.1 0.8 0.4 1.1 0.3 0.2 0.7 0.4 1.1 0.4 0.4 0 0.7-0.2 1-0.4 0.3-0.3 0.4-0.7 0.4-1.1l0.1-2.3h12.7v2.3c0 0.4 0.2 0.8 0.4 1.1 0.3 0.2 0.7 0.4 1.1 0.4 0.4 0 0.8-0.2 1.1-0.4 0.2-0.3 0.4-0.7 0.4-1.1v-2.3h12.8v2.3c0 0.4 0.2 0.8 0.4 1.1 0.3 0.2 0.7 0.4 1.1 0.4 0.4 0 0.8-0.2 1.1-0.4 0.2-0.3 0.4-0.7 0.4-1.1v-2.3z"/><path class="f" d="m63.4 107.9h9.8v9.8h-9.8z"/><path class="f" d="m78.1 107.9h9.8v9.8h-9.8z"/><path class="f" d="m92.8 107.9h9.8v9.8h-9.8z"/><path class="f" d="m107.5 107.9h9.8v9.8h-9.8z"/><path class="g" d="m122.3 107.9h9.8v9.8h-9.8z"/><path class="f" d="m63.4 124h9.8v9.8h-9.8z"/><path class="f" d="m78.1 124h9.8v9.8h-9.8z"/><path class="g" d="m92.8 124h9.8v9.8h-9.8z"/><path class="f" d="m107.5 124h9.8v9.8h-9.8z"/><path class="f" d="m122.3 124h9.8v9.8h-9.8z"/><path class="f" d="m63.4 140.1h9.8v9.8h-9.8z"/><path class="g" d="m78.1 140.1h9.8v9.8h-9.8z"/><path class="f" d="m92.8 140.1h9.8v9.8h-9.8z"/><path class="f" d="m107.5 140.1h9.8v9.8h-9.8z"/><path class="g" d="m122.3 140.1h9.8v9.8h-9.8z"/><path class="g" d="m67.7 83.4v8.6c0 0.4-0.2 0.8-0.4 1.1-0.3 0.2-0.7 0.4-1.1 0.4-0.4 0-0.8-0.2-1.1-0.4-0.2-0.3-0.4-0.7-0.4-1.1v-8.6c0-0.4 0.2-0.7 0.4-1 0.3-0.3 0.7-0.5 1.1-0.5 0.4 0 0.8 0.2 1.1 0.5 0.2 0.3 0.4 0.6 0.4 1z"/><path class="g" d="m83.5 83.4v8.6c0 0.4-0.2 0.8-0.5 1.1-0.3 0.2-0.6 0.4-1 0.4-0.4 0-0.8-0.2-1.1-0.4-0.3-0.3-0.4-0.7-0.4-1.1v-8.6c0-0.4 0.1-0.7 0.4-1 0.3-0.3 0.7-0.5 1.1-0.5 0.4 0 0.7 0.2 1 0.5 0.3 0.3 0.5 0.6 0.5 1z"/><path class="g" d="m99.2 83.4v8.6c0 0.4-0.1 0.8-0.4 1.1-0.3 0.2-0.7 0.4-1.1 0.4-0.4 0-0.7-0.2-1-0.4-0.3-0.3-0.5-0.7-0.5-1.1v-8.6c0-0.4 0.2-0.7 0.5-1 0.3-0.3 0.6-0.5 1-0.5 0.4 0 0.8 0.2 1.1 0.5 0.3 0.3 0.4 0.6 0.4 1z"/><path class="g" d="m115 83.4v8.6c0 0.4-0.2 0.8-0.4 1.1-0.3 0.2-0.7 0.4-1.1 0.4-0.4 0-0.8-0.2-1.1-0.4-0.2-0.3-0.4-0.7-0.4-1.1v-8.6c0-0.4 0.2-0.7 0.4-1 0.3-0.3 0.7-0.5 1.1-0.5 0.4 0 0.8 0.2 1.1 0.5 0.2 0.3 0.4 0.6 0.4 1z"/><path class="g" d="m130.8 83.4v8.6c0 0.4-0.2 0.8-0.4 1.1-0.3 0.2-0.7 0.4-1.1 0.4-0.4 0-0.8-0.2-1.1-0.4-0.3-0.3-0.4-0.7-0.4-1.1v-8.6c0-0.4 0.1-0.7 0.4-1 0.3-0.3 0.7-0.5 1.1-0.5 0.4 0 0.8 0.2 1.1 0.5 0.2 0.3 0.4 0.6 0.4 1z"/><path fill-rule="evenodd" class="g" d="m109.9 230.8q-0.1 0.7-0.1 1.4-0.1 0.6-0.2 1.3 0 0.7-0.2 1.4l5.8 2.6-3 9-6.2-1.4q-0.6 1.2-1.3 2.2-0.7 1.1-1.5 2.2-0.7 1-1.6 1.9-0.8 1-1.7 1.9l3.1 5.4-7.7 5.6-4.2-4.7q-1.2 0.5-2.4 1-1.2 0.5-2.4 0.8-1.2 0.4-2.5 0.7-1.2 0.3-2.5 0.5l-0.6 6.2h-9.5l-0.7-6.4q-1.2-0.2-2.5-0.5-1.2-0.3-2.4-0.7-1.2-0.4-2.4-0.9-1.2-0.5-2.3-1.1l-4.2 4.6-7.7-5.6 3.2-5.6q-0.9-0.9-1.7-1.9-0.8-1-1.6-2-0.7-1-1.4-2.1-0.6-1.1-1.2-2.3l-6.1 1.3-3-9 5.9-2.6q-0.1-0.6-0.2-1.2 0-0.5-0.1-1.1 0-0.6 0-1.2 0-0.6 0-1.2 0-0.7 0-1.4 0-0.6 0.1-1.3 0-0.7 0.1-1.4 0.1-0.7 0.2-1.4l-5.7-2.5 2.9-9 6.3 1.3q0.6-1.1 1.3-2.2 0.6-1.1 1.4-2.1 0.8-1 1.6-2 0.9-1 1.8-1.9l-3.2-5.4 7.7-5.5 4.3 4.7q1.2-0.5 2.4-1 1.1-0.5 2.4-0.8 1.2-0.4 2.4-0.7 1.3-0.3 2.5-0.5l0.7-6.2h9.5l0.7 6.3q1.2 0.2 2.5 0.5 1.2 0.4 2.4 0.8 1.2 0.4 2.4 0.9 1.2 0.5 2.3 1.1l4.2-4.7 7.6 5.6-3.2 5.6q0.9 0.9 1.8 1.9 0.8 1 1.5 2 0.8 1 1.4 2.1 0.7 1.1 1.2 2.3l6.2-1.3 2.9 9-5.8 2.6q0 0.6 0.1 1.1 0.1 0.6 0.1 1.2 0 0.6 0.1 1.2 0 0.6 0 1.2 0 0.7 0 1.4zm-51.2 5.9c0.9 2.3 2.3 4.4 4.1 6.2 1.8 1.8 3.9 3.2 6.2 4.1 2.3 1 4.8 1.5 7.3 1.5 7.7 0 14.7-4.7 17.7-11.8 2.9-7.2 1.3-15.4-4.2-20.8-5.4-5.5-13.7-7.1-20.8-4.2-7.1 3-11.8 9.9-11.8 17.7 0 2.5 0.5 5 1.5 7.3z"/><path fill-rule="evenodd" class="e" d="m155.7 200q0 0.4 0 0.8-0.1 0.5-0.1 0.9-0.1 0.4-0.2 0.9l3.7 1.6-1.9 5.7-4-0.8q-0.4 0.7-0.8 1.4-0.4 0.7-0.9 1.3-0.5 0.7-1 1.3-0.6 0.6-1.2 1.2l2 3.4-4.9 3.6-2.7-3q-0.7 0.3-1.5 0.6-0.7 0.3-1.5 0.6-0.8 0.2-1.6 0.4-0.8 0.2-1.6 0.3l-0.4 4h-6l-0.4-4q-0.8-0.2-1.6-0.4-0.8-0.2-1.6-0.5-0.7-0.2-1.5-0.5-0.7-0.4-1.4-0.7l-2.7 3-4.9-3.6 2-3.5q-0.6-0.6-1.1-1.2-0.5-0.6-1-1.3-0.5-0.7-0.9-1.4-0.4-0.7-0.8-1.4l-3.9 0.8-1.8-5.7 3.7-1.7q-0.1-0.4-0.1-0.7 0-0.4-0.1-0.8 0-0.4 0-0.7 0-0.4 0-0.8 0-0.4 0-0.9 0-0.4 0.1-0.8 0-0.5 0-0.9 0.1-0.4 0.2-0.9l-3.7-1.6 1.9-5.6 4 0.8q0.4-0.7 0.8-1.4 0.4-0.7 0.9-1.3 0.5-0.7 1.1-1.3 0.5-0.6 1.1-1.2l-2-3.4 4.9-3.6 2.7 3q0.7-0.3 1.5-0.6 0.7-0.3 1.5-0.6 0.8-0.2 1.6-0.4 0.8-0.2 1.6-0.3l0.4-4h6l0.4 4q0.8 0.1 1.6 0.3 0.8 0.2 1.6 0.5 0.7 0.3 1.5 0.6 0.7 0.3 1.5 0.7l2.6-3 4.9 3.5-2 3.5q0.6 0.6 1.1 1.3 0.5 0.6 1 1.2 0.4 0.7 0.9 1.4 0.4 0.7 0.7 1.4l4-0.8 1.8 5.7-3.7 1.7q0.1 0.4 0.1 0.7 0 0.4 0.1 0.8 0 0.4 0 0.7 0 0.4 0 0.8 0 0.4 0 0.9zm-32.6 3.8c0.6 1.4 1.5 2.8 2.6 3.9 1.2 1.1 2.5 2 4 2.6 1.5 0.7 3.1 1 4.6 1 5 0 9.4-3 11.3-7.5 1.9-4.6 0.8-9.8-2.6-13.3-3.5-3.5-8.8-4.5-13.3-2.6-4.6 1.8-7.5 6.3-7.5 11.2 0 1.6 0.3 3.2 0.9 4.7z"/><path class="c" d="m152 305.1q0.1-1.4 0.3-2.8 0.1-1.4 0.1-2.9 0.1-1.4 0.1-2.8 0.1-1.5 0.1-2.9 0-3.3-0.2-6.7-0.2-3.3-0.6-6.6-0.4-3.3-1.1-6.6-0.6-3.3-1.5-6.5l55.5-64.3q-0.7 12.8-1 25.5-0.3 12.8-0.2 25.6 0.1 12.8 0.5 25.5 0.4 12.8 1.2 25.5z"/><path class="c" d="m365.6 293.7q0 1.4 0.1 2.9 0 1.4 0.1 2.8 0 1.5 0.2 2.9 0.1 1.4 0.2 2.8h-54.5q0.8-12.9 1.3-25.9 0.4-13 0.5-25.9 0-13-0.3-26-0.3-12.9-1-25.9l56.8 65.9q-0.9 3.2-1.5 6.5-0.7 3.3-1.1 6.6-0.4 3.3-0.6 6.6-0.2 3.4-0.2 6.7z"/><path class="c" d="m394.9 293.7q0 2.2-0.1 4.4-0.1 2.1-0.3 4.3-0.1 2.2-0.4 4.3-0.2 2.2-0.6 4.3h-26.5q-0.5-2.8-0.8-5.9-0.1-1.4-0.2-2.8-0.1-1.4-0.2-2.9-0.1-1.4-0.1-2.8-0.1-1.5 0-2.9-0.1-3.3 0.1-6.7 0.2-3.3 0.6-6.6 0.5-3.3 1.1-6.6 0.7-3.3 1.6-6.5c2.6-9 6.7-14.8 11.2-14.8 8 0 14.6 18.5 14.6 41.2z"/><path class="c" d="m393.5 311c0 0 0 0.1 0 0.1q-0.2 1.1-0.4 2.2c-0.4 2.4-1 4.6-1.5 6.6h-22.6q-0.9-3.1-1.6-6.6-0.2-1.1-0.4-2.2c0 0 0-0.1 0-0.1z"/><path class="c" d="m393.5 311c0 0 0 0.1 0 0.1q-0.2 1.1-0.4 2.2c-0.4 2.4-1 4.6-1.5 6.6h-22.6q-0.9-3.1-1.6-6.6-0.2-1.1-0.4-2.2c0 0 0-0.1 0-0.1z"/><path class="c" d="m302.7 129.8q1.1 4.6 2 9.3 1 4.7 1.8 9.5 0.8 4.7 1.5 9.4 0.7 4.8 1.3 9.5c1.3 11.3 2.2 22.7 2.9 33.9q0.7 12.9 1 25.9 0.3 12.9 0.3 25.9-0.1 13-0.5 26-0.5 12.9-1.3 25.9c-0.1 1-0.1 1.5-0.1 1.5h-106.3c0 0 0-0.5-0.1-1.5q-0.8-12.8-1.2-25.5-0.4-12.8-0.5-25.6-0.1-12.8 0.2-25.5 0.3-12.8 1-25.6c0.5-8.8 1.2-18 2.1-27"/><path class="c" d="m207.7 167.5c3-26.5 9.4-51.7 16-72.5h69.5c2.6 8 5.1 16.7 7.4 25.9"/><path class="c" d="m258.5 284.7c-13.5 0-25.7-8.1-30.9-20.6-5.1-12.5-2.3-26.8 7.3-36.4 9.5-9.5 23.9-12.4 36.3-7.2 12.5 5.2 20.6 17.3 20.6 30.8 0 4.4-0.8 8.8-2.5 12.8-1.7 4.1-4.1 7.7-7.2 10.8-3.1 3.2-6.8 5.6-10.8 7.3-4.1 1.7-8.4 2.5-12.8 2.5zm0-84.6c-11.2 0-21.7-5.7-27.9-15-6.2-9.4-7.2-21.2-2.8-31.5 4.4-10.3 13.7-17.7 24.7-19.7 11-2 22.4 1.6 30.1 9.7l5.8 8.4c2.5 5.1 3.7 10.7 3.4 16.4-0.3 5.6-2 11.1-5 15.9-3 4.9-7.2 8.8-12.2 11.6-4.9 2.7-10.5 4.2-16.2 4.2z"/><path class="i" d="m291.4 256.8c-3 18.2-20.1 30.5-38.3 27.5-18.2-3-30.5-20.1-27.5-38.3 2.9-18.2 20.1-30.5 38.3-27.5 18.2 2.9 30.5 20.1 27.5 38.3z"/><path class="c" d="m291.8 166.7c0 16-11.3 29.7-27 32.7-15.7 3.1-31.3-5.5-37.3-20.3-5.9-14.8-0.5-31.8 12.9-40.5 13.5-8.6 31.2-6.5 42.2 5l5.8 8.4q0.9 1.7 1.5 3.5 0.6 1.8 1.1 3.6 0.4 1.9 0.6 3.8 0.2 1.9 0.2 3.8z"/><path class="c" d="m235.5 62.1q1.2-3 2.4-5.7l0.3-0.8 0.7-1.7 1.1-2.6 0.5-1.1c0.7-1.6 1.3-3 1.9-4.1q0.1-0.3 0.2-0.5l0.1-0.2 0.3-0.7q0.5-1.1 0.8-1.8l0.2-0.3 0.4-0.9q0.8-1.8 1.7-3.6 0.9-1.7 2-3.4 1-1.7 2.1-3.4 1.1-1.6 2.3-3.2c0.7-0.9 1.6-1.6 2.7-2.2 1-0.5 2.1-0.7 3.3-0.7 1.1 0 2.3 0.2 3.3 0.7 1 0.6 1.9 1.3 2.6 2.2q1.2 1.6 2.4 3.2 1.1 1.7 2.1 3.4 1 1.7 1.9 3.4 0.9 1.8 1.7 3.6c0.6 1.2 0.6 1.2 1.6 3.4q0.1 0.1 0.2 0.3c0.8 1.8 1.9 4.3 3.2 7.2q0.2 0.6 0.5 1.2 1.3 3 2.8 6.7 0.1 0.4 0.3 0.8 0.3 0.8 0.7 1.7 0 0 0 0 0 0 0 0 0 0.1 0 0.1 0 0 0 0c0.2 0.5 0.4 1 0.7 1.6l0.3 0.9c1.4 3.6 2.9 7.5 4.4 11.7q0.4 1.1 0.8 2.1c0.5 1.4 1 2.8 1.4 4.2q0.3 0.7 0.5 1.4 1.7 4.8 3.3 10h-37.5"/><path class="c" d="m246.6 95h-22.9q0.8-2.5 1.6-4.9 0.3-0.8 0.6-1.6c1.1-3.6 2.3-7 3.5-10.2l1.1-3.1q0.2-0.5 0.4-1 0.4-1 0.7-2"/><path class="c" d="m255.7 95h-9.1"/><path class="c" d="m275.5 195.3c-14.9 8.8-34.2 4.6-44.1-9.6-10-14.2-7.3-33.7 6.1-44.7 13.4-11 33.1-9.9 45.1 2.7l5.8 8.3c7.7 15.6 2.1 34.4-12.9 43.3zm-17.1-4.2c-9.8 0-18.7-5.9-22.5-15-3.8-9.1-1.7-19.6 5.3-26.6 6.9-7 17.4-9.1 26.5-5.3 9.2 3.8 15.1 12.7 15.1 22.5 0 3.2-0.6 6.4-1.9 9.3-1.2 3-3 5.7-5.2 7.9-2.3 2.3-5 4.1-7.9 5.3-3 1.2-6.1 1.9-9.3 1.9z"/><path class="c" d="m271.2 220.5c4.1 1.7 7.8 4.2 10.9 7.3 3.1 3.1 5.5 6.8 7.2 10.8 1.7 4 2.5 8.4 2.5 12.8 0 13.5-8.1 25.6-20.6 30.8-12.4 5.2-26.8 2.3-36.3-7.2-9.6-9.6-12.4-23.9-7.3-36.4 5.2-12.5 17.4-20.6 30.9-20.6 4.4 0 8.7 0.9 12.7 2.5zm-12.7 55.2c-9.9 0-18.8-5.9-22.5-15-3.8-9.1-1.7-19.6 5.2-26.6 7-6.9 17.5-9 26.6-5.2 9.1 3.7 15 12.6 15 22.5 0 3.2-0.6 6.3-1.8 9.3-1.2 3-3 5.6-5.3 7.9-2.3 2.3-4.9 4.1-7.9 5.3-3 1.2-6.1 1.8-9.3 1.8z"/><path class="c" d="m205.3 306.7h106.4v30.6h-106.4z"/><path class="c" d="m219 337.3v-29.7"/><path class="c" d="m239 337.3v-29.7"/><path class="c" d="m258.9 337.3v-29.7"/><path class="c" d="m278.8 337.3v-29.7"/><path class="c" d="m298.8 337.3l-0.1-29.7"/><path class="c" d="m152.6 293.7q0 1.4-0.1 2.9 0 1.4-0.1 2.8 0 1.5-0.2 2.9-0.1 1.4-0.2 2.8-0.3 3-0.8 5.9h-26.5q-0.4-2.1-0.6-4.3-0.3-2.1-0.4-4.3-0.2-2.2-0.3-4.3-0.1-2.2-0.1-4.4c0-22.7 6.6-41.2 14.7-41.2 4.5 0 8.5 5.8 11.2 14.8q0.9 3.2 1.5 6.5 0.7 3.3 1.1 6.6 0.4 3.3 0.6 6.6 0.2 3.4 0.2 6.7z"/><path class="c" d="m151.2 311q-0.1 0.6-0.2 1.2l-0.1 0.5q-0.3 1.5-0.6 3c-0.1 0.5-0.2 1-0.3 1.4l-0.4 1.4q-0.2 0.7-0.4 1.4h-22.5q-0.3-1-0.6-2.1-0.1-0.5-0.3-1.1-0.2-1.1-0.5-2.2-0.1-0.6-0.2-1.2-0.2-1-0.4-2.2c0 0 0-0.1 0-0.1z"/><path class="c" d="m151.2 311q-0.1 0.6-0.2 1.2l-0.1 0.5q-0.3 1.5-0.6 3c-0.1 0.5-0.2 1-0.3 1.4l-0.4 1.4q-0.2 0.7-0.4 1.4h-22.5q-0.3-1-0.6-2.1-0.1-0.5-0.3-1.1-0.2-1.1-0.5-2.2-0.1-0.6-0.2-1.2-0.2-1-0.4-2.2c0 0 0-0.1 0-0.1z"/><path class="f" d="m318.7 459.1c0 0 1 7 0.4 10.9-0.6 4-4 4-9.2 2.9-5.3-1.2-15.5-2.1-19.6-7.6-1.3-1.7-0.2-2.2 1.7-3q0.8-0.3 1.6-0.6 0.9-0.3 1.7-0.5 0.9-0.3 1.7-0.5 0.9-0.3 1.7-0.5c0.6 0 2.1-2 2.1-2 7.6 3 17.9 0.9 17.9 0.9z"/><path class="f" d="m309.9 472.9c-5.3-1.2-15.5-2.1-19.6-7.6-0.9-1.1-0.7-1.7 0-2.2 1.1 1.5 3.9 4 11.3 6.2q2.1 0.6 4.3 0.9 2.2 0.4 4.4 0.5 2.2 0.1 4.4 0 2.2-0.1 4.4-0.5c-0.6 3.8-4 3.8-9.2 2.7z"/><path class="f" d="m354.3 458c0 0 1.2 6 0.4 10.3-0.8 4.4-5.3 4-6.8 4.2-1.5 0.2-7.9-2.9-10.5-3.2-2.7-0.3-5.9-2.1-6.4-4.3-0.6-2.3 3.6-2.7 4.3-3.4 0.8-0.8 4.5-4 4.5-4z"/><path class="f" d="m354.7 468.4c-0.8 4.3-5.3 3.9-6.8 4.1-1.5 0.2-7.9-2.9-10.5-3.2-2.7-0.3-5.9-2.1-6.5-4.3q0-0.1 0-0.2 0-0.1 0-0.2 0-0.1 0-0.2 0-0.1 0-0.1 0.6 0.4 1.2 0.8 0.6 0.4 1.3 0.7 0.6 0.4 1.3 0.6 0.6 0.3 1.4 0.4c4.7 1.2 6.2 1.2 9.6 2.3 2.8 0.9 6.8 1 9-0.7z"/><path class="g" d="m342.4 322.3c0 0 2.7 7 4.4 13.4 1.7 6.4 1.3 10.2 1.9 17.3 0.5 7.2-1.6 32.8-1.4 39.4 0.2 6.6 3.4 11.3 4.9 19.4 1.5 8.1 1.4 32.4 1.9 35.1q0.2 0.8 0.4 1.6 0.2 0.8 0.4 1.7 0.1 0.8 0.3 1.6 0.1 0.8 0.2 1.7 0.1 0.8 0.1 1.6 0 0.8-0.1 1.6-0.2 0.8-0.4 1.5-0.3 0.8-0.7 1.5c-1.3 2.4-2.8 2.8-6 2.6-3.2-0.2-8.3-2.4-8.3-2.4 0 0-1.7-5.5-1.9-6.6-0.2-1.1 2.1-2.1 1.3-3.2-0.7-1.1-9.8-49.4-10.9-52.4-1.1-3-3.2-38.6-3.2-38.6l-2.8 5.1c0 0-2.3 31-2.5 34.4-0.1 3.4-0.1 6.5-0.3 10.6-0.2 4.1-0.8 34.1-0.8 36.9 0 2.9 0.4 5.5 0.4 8 0 2.4 0.4 5.4 0.2 6.7-0.2 1.3-3 2.9-8.3 1.7q-1.5-0.3-2.9-0.8-1.4-0.4-2.8-0.9-1.4-0.6-2.8-1.1-1.3-0.6-2.6-1.3l0.3-3.4 1.5-1.1q0.2-0.6 0.4-1.1 0.1-0.6 0.3-1.2 0.1-0.5 0.2-1.1 0-0.6 0.1-1.2c0-1.7-1-29.6-1.7-36.1-0.8-6.6-4-30.2-5.1-50.4-1.1-20.1 1.3-41.8 1.3-41.8 21.7 8.6 45 1.3 45 1.3z"/><path class="e" d="m341.6 254.4c3.8 1 12 9.2 12.8 14 0.8 4.8-3.3 15.8-4 18.3-0.6 2.4-5.6 25.6-5.9 29.2-0.3 3.6 0 3.1-0.2 5.8-0.2 2.6-0.8 2.9-3 4.4-2.1 1.5-16.1 3.6-20.7 3.6-4.6 0-22.6-5.4-24.1-6.7-1.5-1.3 0.2-5.8 0.6-7.1 0.5-1.3 1.5-19.2 1.5-19.2 0 0-6.2 7.9-8.7 8.5-2.4 0.7-5.1 0.9-7.4-0.5-2.3-1.3-2.8-6.2-1.8-9.3 1-3.2 7.1-19.3 7.1-19.3 0 0 1-5.2 1.6-8.5 0.7-3.3 6.6-4.3 10-5.6 3.5-1.3 12-6.6 12-6.6 6.6-1.3 26.3-2 30.2-1z"/><path class="f" d="m320.2 225.3c0 1.4-2.6 10.8-3.5 14-0.8 3.3-2.1 3-3 2.5-0.8-0.5-1-5.2-1.3-5.4q-0.4-0.4-0.8-0.8-0.4-0.3-0.8-0.7-0.4-0.4-0.8-0.8-0.4-0.4-0.7-0.8c-0.8-1.2 2.3-3 2.8-3.7 0.5-0.6 0.5-1.3 0-3.4-0.6-2.2 3.4-8.1 3.4-8.1 5.1-1 4.7 5.9 4.7 7.2z"/><path class="f" d="m343.5 222.3c2.1 7.9-5.7 17.9-6.4 20.5-0.7 2.7-0.2 9.4-0.2 9.4l-19.4 1.8 0.5-5.6-3 0.7c-2.9 0.6-3.6 0-4.6-1.5-0.9-1.5 1.2-5.2 1.5-6.2 0.3-1 0.2-3 0.5-5 0.3-1.9 2.3 4 2.6 3.5 0.4-0.5 2.7-11.1 2.5-11.4q-0.3-0.3-0.6-0.7-0.3-0.4-0.5-0.8-0.3-0.5-0.6-0.9-0.2-0.4-0.4-0.8c-0.7-1.6 1.8-3.6 1.1-4-0.6-0.5-4.6-3.7-3.9-6.5 0.6-2.7 8.5-3.1 8.5-3.1 4.5-1.1 20.3 2.7 22.4 10.6z"/><path class="g" d="m337.3 242.4q-0.9 0.4-1.8 0.7-1 0.2-1.9 0.4-1 0.1-2 0.1-0.9 0-1.9-0.1c-3-0.7-4.1-2.5-4.4-5.8q-0.1-0.6-0.2-1.2-0.1-0.7-0.4-1.3-0.2-0.6-0.5-1.2-0.3-0.5-0.7-1c-1.2-0.2-2.2 1.3-2.3 2.4-0.2 1.2-0.4 8.1-0.5 9.6-0.2 1.4-2.7 3.4-2.7 3.4l-3 0.7c-2.9 0.6-3.6 0-4.6-1.5-0.9-1.5 1.2-5.2 1.5-6.2 0.3-1 0.2-3 0.5-5 0.3-1.9 2.3 4 2.6 3.5 0.4-0.5 2.7-11.1 2.5-11.4q-0.3-0.3-0.6-0.7-0.3-0.4-0.5-0.8-0.3-0.5-0.6-0.9-0.2-0.4-0.4-0.8c-0.7-1.6 1.8-3.6 1.1-4-0.6-0.5-4.6-3.7-3.9-6.5 0.6-2.7 8.5-3.1 8.5-3.1 4.5-1.1 20.2 2.7 22.4 10.5 2 7.5-5 16.9-6.2 20.2z"/><path class="f" d="m319.3 234.4c0 0 1.8-5.4 3.3-3.4 1.5 1.9 1.1 7.3-0.7 8.8-1.8 1.5-3.2-2.8-2.6-5.4z"/><path class="e" d="m308.8 257.6c0 0 3.6-5.6 7.9-7.1 4.3-1.5 18.5-1.8 20.9-1.6 2.3 0.1 3.9 5.5 3.9 5.5z"/><path class="c" d="m297 282.7c0.8 5.6 1.6 14 1.6 14l-6.9-20.8"/><path class="c" d="m298.6 296.7c0 0-10.3-0.8-13.3-1.8"/><path class="c" d="m299.1 299.8c0 0 3 14.5 8.2 20.1"/><path class="c" d="m298.4 304.1c0.1 0 0.7 14.4 3 17.4"/><path class="f" d="m283.5 287c0 0-2-2.8-1.5-4 0.5-1.1 3.5-1.1 3.5-1.1z"/><path class="f" d="m283.5 287l-1 2.3q-0.4-0.2-0.7-0.4-0.4-0.2-0.7-0.5-0.3-0.2-0.6-0.5-0.2-0.3-0.5-0.6c-1.3-1.5 2-2.6 2-2.6z"/><path class="f" d="m282.5 289.3l-0.4 2q-0.4-0.1-0.7-0.3-0.3-0.1-0.7-0.3-0.3-0.2-0.6-0.4-0.3-0.2-0.6-0.4c-0.5-0.6 0.5-2.6 0.5-2.6z"/><path class="c" d="m282.1 291.3l-0.8 2.1c0 0-1.6-0.6-1.9-1.4q-0.1-0.2-0.1-0.4 0-0.2 0-0.4 0.1-0.2 0.2-0.4 0-0.2 0.2-0.4z"/><path class="f" d="m257.4 254.8c0 0-2.2 3.8-3.1 4.3-0.9 0.6-2.7-0.2-2.7-0.2l0.8-1.4c0 0-1.8-2.6-1.8-3.8 0-1.2 3.7 1.3 3.7 1.3 0 0-2.1-3.3-1.6-4.9 0.4-1.7 3.7 3.8 3.7 3.8 0 0-0.8-5.2 0.1-6.6 0.9-1.5 1.4 4.7 1.4 4.7z"/><path class="e" d="m178.1 271.4l2.1 32.1-22.1 2.2-1.6-32.9 21.6-1.3z"/><path class="f" d="m162 271.9c0 0 0.7-2.1 1.6-2.1 0.9 0 2.6 4.6 1.5 4.6-1 0-1.6-2.1-1.6-2.1z"/><path class="f" d="m164.8 270.3c0 0 1.4-1.8 2.2-1 0.7 0.7 1.5 5.3 0.6 5.1-0.9-0.1-1.5-2.2-1.5-2.2z"/><path class="f" d="m167 269.2c0 0 1.8-1 2.4 0.5 0.6 1.4 0.4 4-0.2 4.3-0.6 0.3-1-0.9-1-0.9q-0.1-0.5-0.2-1-0.2-0.5-0.3-1-0.2-0.5-0.3-0.9-0.2-0.5-0.4-1z"/><path class="f" d="m169.4 269.7c0 0 1.9-1.4 2 0q0.1 0.4 0.1 0.9 0.1 0.5 0 1-0.1 0.4-0.2 0.9-0.1 0.4-0.3 0.9-0.1 0.2-0.3 0.3-0.2 0.2-0.5 0.3-0.2 0.1-0.5 0.1-0.2 0-0.5-0.1c-0.1-0.1 0.6-3.1 0.2-4.3z"/><path class="f" d="m214.9 316.7c0 0 4.4 21.1 4.6 35.8 0.2 14.8-8.9 31.2-9.3 33.6-0.4 2.3 0 6.4-0.2 13q-0.1 2.8-0.3 5.7-0.2 2.9-0.5 5.8-0.3 2.9-0.7 5.7-0.3 2.9-0.8 5.8c-0.8 3.5-6.7 23-6.7 24 0 0.9-0.4 8.1 0.2 10 0.5 2 5.1 4.9 6.7 5.3q0.6 0.2 1.2 0.4 0.6 0.2 1.2 0.6 0.5 0.3 1 0.8 0.5 0.4 0.9 0.9c0.7 0.8-4.5 3.6-8.1 3.9-2.3 0.2-9.7 1.8-12.4 0.8-2.7-0.9 0.1-10.4 0.1-11.4 0.4-7.9-0.4-36-0.4-36 0 0-2.1 28.2-2.1 29.2 0 1 0.2 9.3 0 12q0 0.5 0 0.9-0.1 0.4-0.1 0.9-0.1 0.4-0.2 0.8-0.1 0.5-0.3 0.9c0 0-1.3 1-2.3 1.6-1 0.5-4.1 0.7-5.6 0.5-1.6-0.2-3.5-0.7-3.5-3.3 0-2.5 2-28.6 1.8-30-0.2-1.3-2.9-24-3.7-29.8-0.8-5.8 2.5-16.4 1.9-18.8-0.6-2.3-12.6-31.9-12.6-43.6 0-11.6 6.4-27.8 6.4-27.8z"/><path class="f" d="m189.4 462.6q0 0.4-0.1 0.9 0 0.4-0.1 0.9-0.1 0.4-0.2 0.8-0.1 0.5-0.2 0.9c0 0-1.4 1-2.4 1.5-0.9 0.6-4 0.8-5.6 0.6-1.5-0.2-3.5-0.8-3.5-3.3 0-0.5 0.1-2 0.3-4.1q0.9 0.3 1.9 0.5 0.9 0.2 1.9 0.3 1 0.2 2 0.2 1 0 2 0 0.6-0.1 1.1-0.2 0.6-0.2 1.1-0.5 0.5-0.2 0.9-0.6 0.5-0.3 0.9-0.7c0 1.1-0.1 2.1 0 2.8z"/><path class="f" d="m204.2 468.1c-2.4 0.2-9.7 1.8-12.4 0.8-1.6-0.6-1.3-4.3-0.7-7.3 4.9 2.2 13.7 0.5 13.7 0.5l-0.5-2.6q0.4 0.3 0.9 0.6 0.4 0.2 0.9 0.5 0.4 0.2 0.9 0.5 0.5 0.2 1 0.4 0.6 0.1 1.2 0.4 0.6 0.2 1.1 0.5 0.6 0.4 1 0.8 0.5 0.5 0.9 1c0.8 0.8-4.4 3.5-8 3.9z"/><path class="f" d="m196.1 258.1c5.1 1 15.9 7.4 15.9 7.4 0 0 5.3 0.9 8.1 2.5 2.8 1.7 6 13.7 6 13.7l4.9 7.2c0 0 14.3-23.1 14.3-23.5 0-0.5 0.9-3.5 1-4.6 0.2-1.2 4.2-3.6 4.5-4q0.4-0.7 0.8-1.3 0.4-0.6 0.8-1.2 0.5-0.6 1-1.2 0.4-0.5 0.9-1.1c1.5-1.3 0.8 0.6 0.6 1.7-0.1 1-3.5 5.3-3.2 5.1q0.4-0.1 0.8-0.3 0.5-0.2 0.9-0.4 0.4-0.2 0.9-0.4 0.4-0.2 0.8-0.5c0.4-0.4 2.8-5.2 2.8-5.2 0 0 0.3-1.3 0.4-2.5 0.2-1.2 1.1-3.3 1.4-1.9q0.1 0.7 0.1 1.4 0.1 0.6 0.1 1.3 0 0.7-0.1 1.4-0.1 0.7-0.3 1.4c-0.4 1.7-3.4 7.7-4.4 8.6-1.1 0.8-3.6 2.6-3.6 2.6l-15.4 40.2q-0.4 0.7-1 1.3-0.5 0.6-1.2 1-0.7 0.5-1.5 0.7-0.8 0.2-1.6 0.3c-4 0.2-14.9-11.8-14.9-11.8 0 0-1 6.2-1.1 6.9-0.2 0.7 1.5 10.2 1.3 11.7-0.2 1.5 0 3.2-1.2 4.1-1.2 0.9-7.4 1.2-21 1.2-13.7 0-18.8-2.3-19.2-2.5q-0.5-0.2-0.9-0.5-0.5-0.3-1-0.6-0.4-0.3-0.8-0.7-0.4-0.3-0.8-0.7c-1.1-1.4 1.8-6.9 2.5-9.7 0.7-2.8 0.6-9.3 0.3-8.7q-0.2 0.7-0.4 1.4-0.2 0.8-0.4 1.5-0.2 0.7-0.3 1.4-0.2 0.8-0.3 1.5-0.1 0.4-0.1 0.8-0.1 0.4-0.3 0.8-0.1 0.4-0.2 0.8-0.2 0.4-0.4 0.7c-0.6 1.1-3 4-6.1 4.8-3.1 0.7-5.2-3.2-7.1-4.6-1.9-1.5-1.8-2.5-1.2-3.9 0.6-1.4 11.1-33.5 11.3-35 0.1-1.5 14.5-6.2 14.5-6.2 0 0 8.1-3.4 13.1-2.4z"/><path class="c" d="m174 296.5l-3-18.8"/><path class="f" d="m214.5 227.5q0.4 0.5 0.6 1.1 0.3 0.6 0.5 1.2 0.2 0.6 0.3 1.2 0.1 0.6 0.2 1.3c0.2 3.1-0.3 6.3 0.2 7.1 0.5 0.8 3.2 1.8 2.8 3.1-0.5 1.3-2.6 2.6-2.6 2.6 0 0-0.2 6-1.3 7.5-1.2 1.4-7 0.2-7 0.2l-2 7.1-15.5-4.9c0 0 2-0.7 0.6-5.6q-0.2-0.8-0.5-1.6-0.2-0.8-0.5-1.6-0.3-0.8-0.6-1.5-0.4-0.8-0.8-1.6c-0.2-0.5-0.7-8.2 9.4-13.4 10-5.2 16.2-2.2 16.2-2.2z"/><path class="d" d="m214.5 237.8c0.1 1 0 1.9-0.4 1.9-0.4 0.1-0.8-0.7-1-1.7-0.2-1 0-1.9 0.4-1.9 0.3-0.1 0.8 0.7 1 1.7z"/><path class="c" d="m211.2 234.8c0 0 1.7-2.4 3.3-0.8"/><path class="c" d="m214.9 246.4q-0.4 0-0.8-0.1-0.4 0-0.8-0.2-0.4-0.2-0.8-0.4-0.3-0.3-0.6-0.6"/><path class="g" d="m209 232.1c0 0-2.4 5.6-4 6.5q-0.3 0.2-0.6 0.4-0.3 0.2-0.7 0.4-0.3 0.1-0.6 0.3-0.3 0.1-0.7 0.3-0.6 1-1.2 2-0.6 1-1.3 2-0.7 1-1.4 1.9-0.7 1-1.5 1.9c-2.6 2.7-2.4 2.2-4.2 1.7-1.8-0.5-6.3-2.9-9.3-8.8-3-5.8-2.5-14.7 4.3-19.5 6.8-4.8 18.9-5 22.7-4.2 3.9 0.8 8.2 3.9 7.7 7.2-0.6 3.3-5.6 6.9-9.2 7.9z"/><path class="f" d="m203.2 246.4c-2.1 0.8-4.6-4.2-3-7.3 1.5-3 4.5 2.6 4.5 2.6"/><path class="g" d="m188.6 236.2c-0.7 5.6-5 9.6-9.6 9.1-4.6-0.6-7.8-5.5-7.2-11.1 0.7-5.6 5-9.6 9.6-9.1 4.7 0.6 7.9 5.5 7.2 11.1z"/><path class="f" d="m183 260.5c0 0 2.4-4.6 3.7-5.4 1.3-0.7 7.1-1.4 13.2 0 6.1 1.5 10.4 6 11 7.8q0.1 0.3 0.2 0.6 0.1 0.4 0.3 0.7 0.1 0.3 0.2 0.7 0.2 0.3 0.3 0.6c0.1 0.2-13.9-5.3-18.5-5.9-4.6-0.6-10.4 0.9-10.4 0.9z"/><path class="c" d="m219.8 285.4l-3.9 10.7 1.9-19.2"/><path class="c" d="m230.9 288.9l3.2 4.3"/><path class="f" d="m259.7 247.6q0.1 0.7 0.2 1.4 0 0.6 0 1.3 0 0.7-0.1 1.4-0.1 0.7-0.3 1.4c-0.4 1.7-3.4 7.7-4.4 8.6-1 0.9-3.6 2.6-3.6 2.6l-7.7 20.2-8-3.5c4.2-6.7 9.5-15.4 9.5-15.6 0-0.5 0.8-3.4 1-4.6 0.1-1.2 4.2-3.6 4.4-4q0.4-0.7 0.8-1.3 0.4-0.6 0.9-1.2 0.4-0.6 0.9-1.2 0.5-0.5 1-1.1c1.5-1.3 0.7 0.6 0.6 1.7-0.2 1-3.6 5.3-3.3 5.2q0.5-0.2 0.9-0.4 0.4-0.2 0.9-0.4 0.4-0.2 0.8-0.4 0.4-0.2 0.8-0.5c0.5-0.4 2.9-5.2 2.9-5.2 0 0 0.3-1.3 0.4-2.5 0.1-1.2 1-3.2 1.4-1.9z"/><path class="g" d="m210.3 386.1c-0.4 2.4 0 6.5-0.2 13q-0.1 2.9-0.3 5.8-0.3 2.9-0.5 5.8-0.3 2.9-0.7 5.7-0.4 2.9-0.8 5.7c-0.3 1.2-1.3 4.7-2.5 8.9q-1.7 0.3-3.4 0.4-1.8 0.1-3.5 0-1.8-0.2-3.5-0.6-1.7-0.4-3.3-1.1c-0.1-4.8-0.1-8.3-0.1-8.3 0 0-0.3 3.6-0.6 8.3q-1.6 0.1-3.2 0.1-1.6-0.1-3.2-0.2-1.5-0.2-3.1-0.4-1.6-0.3-3.1-0.7c-0.9-7.5-2.4-19.4-2.9-23.4-0.8-5.8 2.5-16.4 1.9-18.8-0.6-2.3-12.6-31.9-12.6-43.6 0-11.6 6.4-27.8 6.4-27.8l43.8 1.9c0 0 4.5 21.1 4.7 35.8 0.2 14.7-8.9 31.2-9.3 33.5z"/><path class="j" d="m184.5 348.7l6.6 2.1c0 0 3 37.6 2.8 40.4-0.2 2.8-4.8 17.9-2.4 30.2"/></svg>