<svg xmlns="http://www.w3.org/2000/svg" viewBox="0 0 900 45"><defs><style>.cls-1{fill:#0ff4c6;}.cls-2{fill:#00c0be;}.cls-3{fill:#008da0;}.cls-4{fill:#325c70;}.cls-5{fill:#2d3238;}</style></defs><title>Asset 1</title><g id="Layer_2" data-name="Layer 2"><g id="visual"><path class="cls-1" d="M0,0,75,3l75,10L225,3l75,2,75-2,75,2,75,6L600,1l75-1,75,12,75,6,75-3V45H0Z"/><path class="cls-2" d="M0,14l75,5h75l75,3,75-9,75,2,75,2,75-3,75,5,75-6,75-3,75,3,75-5V45H0Z"/><path class="cls-3" d="M0,27H75l75-6,75,3h75l75-8,75,5,75,2,75-3,75-1,75,9,75-12,75,12V45H0Z"/><path class="cls-4" d="M0,25H150l75-2h75l75,8,75-8,75,7,75,1,75-1,75,2,75-1,75-9V45H0Z"/><path class="cls-5" d="M0,35H75l75,2,75-6,75-1,75,2,75,3,75-6,75,2,75,2,75,2,75-3,75,4v9H0Z"/></g></g></svg>